<svg xmlns="http://www.w3.org/2000/svg" xmlns:xlink="http://www.w3.org/1999/xlink" width="500" zoomAndPan="magnify" viewBox="0 0 375 374.999991" height="500" preserveAspectRatio="xMidYMid meet" version="1.0"><defs><clipPath id="e0db135ea5"><path d="M 57.355469 152.234375 L 198.289062 152.234375 L 198.289062 311.9375 L 57.355469 311.9375 Z M 57.355469 152.234375 " clip-rule="nonzero"/></clipPath><clipPath id="34438632d3"><path d="M 30.449219 152.234375 L 225.449219 152.234375 L 225.449219 328.484375 L 30.449219 328.484375 Z M 30.449219 152.234375 " clip-rule="nonzero"/></clipPath></defs><path fill="#f0c0bf" d="M 122.804688 128.679688 C 122.816406 127.898438 122.839844 127.117188 122.871094 126.335938 C 125.003906 73.296875 172.71875 35.128906 220.875 26.621094 C 286.945312 14.953125 374.695312 58.621094 359.328125 136.464844 C 351.097656 178.140625 321.5625 215.921875 279.738281 227.496094 C 268.207031 230.6875 255.179688 232.742188 243.191406 232.742188 C 218.125 232.742188 198.347656 219.707031 175.292969 236.359375 C 168.550781 241.226562 161.574219 258.320312 150.882812 254.554688 C 143.066406 251.800781 141.425781 235.957031 140.898438 229.347656 C 138.175781 195.4375 122.203125 162.820312 122.804688 128.679688 Z M 122.804688 128.679688 " fill-opacity="1" fill-rule="nonzero"/><path fill="#ffffff" d="M 313.925781 129.195312 C 313.925781 130.207031 313.824219 131.210938 313.628906 132.203125 C 313.429688 133.195312 313.136719 134.160156 312.75 135.097656 C 312.363281 136.03125 311.886719 136.921875 311.324219 137.761719 C 310.761719 138.605469 310.125 139.382812 309.40625 140.101562 C 308.691406 140.816406 307.914062 141.457031 307.070312 142.019531 C 306.226562 142.582031 305.339844 143.054688 304.402344 143.441406 C 303.46875 143.832031 302.503906 144.125 301.511719 144.320312 C 300.515625 144.519531 299.515625 144.617188 298.5 144.617188 C 297.488281 144.617188 296.484375 144.519531 295.492188 144.320312 C 294.5 144.125 293.535156 143.832031 292.597656 143.441406 C 291.664062 143.054688 290.773438 142.582031 289.933594 142.019531 C 289.089844 141.457031 288.3125 140.816406 287.597656 140.101562 C 286.878906 139.382812 286.242188 138.605469 285.679688 137.761719 C 285.117188 136.921875 284.640625 136.03125 284.253906 135.097656 C 283.867188 134.160156 283.574219 133.195312 283.375 132.203125 C 283.175781 131.210938 283.078125 130.207031 283.078125 129.195312 C 283.078125 128.183594 283.175781 127.179688 283.375 126.1875 C 283.574219 125.191406 283.867188 124.226562 284.253906 123.292969 C 284.640625 122.355469 285.117188 121.46875 285.679688 120.625 C 286.242188 119.785156 286.878906 119.003906 287.597656 118.289062 C 288.3125 117.574219 289.089844 116.933594 289.933594 116.371094 C 290.773438 115.808594 291.664062 115.332031 292.597656 114.945312 C 293.535156 114.558594 294.5 114.265625 295.492188 114.066406 C 296.484375 113.871094 297.488281 113.773438 298.5 113.773438 C 299.515625 113.773438 300.515625 113.871094 301.511719 114.066406 C 302.503906 114.265625 303.46875 114.558594 304.402344 114.945312 C 305.339844 115.332031 306.226562 115.808594 307.070312 116.371094 C 307.914062 116.933594 308.691406 117.574219 309.40625 118.289062 C 310.125 119.003906 310.761719 119.785156 311.324219 120.625 C 311.886719 121.46875 312.363281 122.355469 312.75 123.292969 C 313.136719 124.226562 313.429688 125.191406 313.628906 126.1875 C 313.824219 127.179688 313.925781 128.183594 313.925781 129.195312 Z M 313.925781 129.195312 " fill-opacity="1" fill-rule="nonzero"/><path fill="#ffffff" d="M 259.449219 129.195312 C 259.449219 130.207031 259.347656 131.210938 259.152344 132.203125 C 258.953125 133.195312 258.660156 134.160156 258.273438 135.097656 C 257.886719 136.03125 257.410156 136.921875 256.847656 137.765625 C 256.285156 138.605469 255.644531 139.386719 254.929688 140.101562 C 254.214844 140.816406 253.433594 141.457031 252.59375 142.019531 C 251.75 142.582031 250.863281 143.058594 249.925781 143.445312 C 248.988281 143.832031 248.027344 144.125 247.03125 144.324219 C 246.039062 144.519531 245.035156 144.617188 244.023438 144.617188 C 243.011719 144.617188 242.007812 144.519531 241.015625 144.324219 C 240.019531 144.125 239.054688 143.832031 238.121094 143.445312 C 237.183594 143.058594 236.296875 142.582031 235.453125 142.019531 C 234.613281 141.457031 233.832031 140.816406 233.117188 140.101562 C 232.402344 139.386719 231.761719 138.605469 231.199219 137.765625 C 230.636719 136.921875 230.160156 136.03125 229.773438 135.097656 C 229.386719 134.160156 229.09375 133.195312 228.894531 132.203125 C 228.699219 131.210938 228.597656 130.207031 228.597656 129.195312 C 228.597656 128.183594 228.699219 127.179688 228.894531 126.183594 C 229.09375 125.191406 229.386719 124.226562 229.773438 123.292969 C 230.160156 122.355469 230.636719 121.46875 231.199219 120.625 C 231.761719 119.78125 232.402344 119.003906 233.117188 118.289062 C 233.832031 117.570312 234.613281 116.933594 235.453125 116.371094 C 236.296875 115.808594 237.183594 115.332031 238.121094 114.945312 C 239.054688 114.558594 240.019531 114.265625 241.015625 114.066406 C 242.007812 113.867188 243.011719 113.769531 244.023438 113.769531 C 245.035156 113.769531 246.039062 113.867188 247.03125 114.066406 C 248.027344 114.265625 248.988281 114.558594 249.925781 114.945312 C 250.863281 115.332031 251.75 115.808594 252.59375 116.371094 C 253.433594 116.933594 254.214844 117.570312 254.929688 118.289062 C 255.644531 119.003906 256.285156 119.78125 256.847656 120.625 C 257.410156 121.46875 257.886719 122.355469 258.273438 123.292969 C 258.660156 124.226562 258.953125 125.191406 259.152344 126.183594 C 259.347656 127.179688 259.449219 128.183594 259.449219 129.195312 Z M 259.449219 129.195312 " fill-opacity="1" fill-rule="nonzero"/><path fill="#ffffff" d="M 207.855469 129.195312 C 207.855469 130.207031 207.753906 131.210938 207.558594 132.203125 C 207.359375 133.195312 207.066406 134.160156 206.679688 135.097656 C 206.292969 136.03125 205.816406 136.921875 205.253906 137.761719 C 204.691406 138.605469 204.054688 139.382812 203.335938 140.101562 C 202.621094 140.816406 201.839844 141.457031 201 142.019531 C 200.15625 142.582031 199.269531 143.054688 198.332031 143.441406 C 197.398438 143.832031 196.433594 144.125 195.441406 144.320312 C 194.445312 144.519531 193.445312 144.617188 192.429688 144.617188 C 191.417969 144.617188 190.414062 144.519531 189.421875 144.320312 C 188.429688 144.125 187.464844 143.832031 186.527344 143.441406 C 185.59375 143.054688 184.703125 142.582031 183.863281 142.019531 C 183.019531 141.457031 182.242188 140.816406 181.527344 140.101562 C 180.808594 139.382812 180.171875 138.605469 179.609375 137.761719 C 179.046875 136.921875 178.570312 136.03125 178.183594 135.097656 C 177.792969 134.160156 177.503906 133.195312 177.304688 132.203125 C 177.105469 131.210938 177.007812 130.207031 177.007812 129.195312 C 177.007812 128.183594 177.105469 127.179688 177.304688 126.1875 C 177.503906 125.191406 177.792969 124.226562 178.183594 123.292969 C 178.570312 122.355469 179.046875 121.46875 179.609375 120.625 C 180.171875 119.785156 180.808594 119.003906 181.527344 118.289062 C 182.242188 117.574219 183.019531 116.933594 183.863281 116.371094 C 184.703125 115.808594 185.59375 115.332031 186.527344 114.945312 C 187.464844 114.558594 188.429688 114.265625 189.421875 114.066406 C 190.414062 113.871094 191.417969 113.773438 192.429688 113.773438 C 193.445312 113.773438 194.445312 113.871094 195.441406 114.066406 C 196.433594 114.265625 197.398438 114.558594 198.332031 114.945312 C 199.269531 115.332031 200.15625 115.808594 201 116.371094 C 201.839844 116.933594 202.621094 117.574219 203.335938 118.289062 C 204.054688 119.003906 204.691406 119.785156 205.253906 120.625 C 205.816406 121.46875 206.292969 122.355469 206.679688 123.292969 C 207.066406 124.226562 207.359375 125.191406 207.558594 126.1875 C 207.753906 127.179688 207.855469 128.183594 207.855469 129.195312 Z M 207.855469 129.195312 " fill-opacity="1" fill-rule="nonzero"/><path fill="#a5d8dc" d="M 252.058594 230.371094 C 252.046875 229.589844 252.023438 228.808594 251.992188 228.027344 C 249.863281 174.988281 202.144531 136.820312 153.988281 128.3125 C 87.917969 116.644531 0.167969 160.3125 15.535156 238.15625 C 23.769531 279.832031 53.300781 317.613281 95.125 329.1875 C 106.65625 332.375 119.6875 334.433594 131.671875 334.433594 C 156.738281 334.433594 176.515625 321.402344 199.570312 338.050781 C 206.3125 342.917969 213.289062 360.011719 223.980469 356.242188 C 231.796875 353.492188 233.4375 337.648438 233.964844 331.039062 C 236.6875 297.128906 252.660156 264.511719 252.058594 230.371094 Z M 252.058594 230.371094 " fill-opacity="1" fill-rule="nonzero"/><path fill="#ffffff" d="M 91.785156 230.886719 C 91.785156 231.898438 91.6875 232.902344 91.488281 233.894531 C 91.292969 234.886719 91 235.851562 90.609375 236.785156 C 90.222656 237.722656 89.75 238.613281 89.1875 239.453125 C 88.625 240.296875 87.984375 241.074219 87.269531 241.789062 C 86.550781 242.507812 85.773438 243.144531 84.929688 243.707031 C 84.089844 244.269531 83.199219 244.746094 82.265625 245.132812 C 81.328125 245.519531 80.363281 245.8125 79.371094 246.011719 C 78.378906 246.210938 77.375 246.308594 76.363281 246.308594 C 75.347656 246.308594 74.347656 246.210938 73.351562 246.011719 C 72.359375 245.8125 71.394531 245.519531 70.460938 245.132812 C 69.523438 244.746094 68.636719 244.269531 67.792969 243.707031 C 66.953125 243.144531 66.171875 242.507812 65.457031 241.789062 C 64.742188 241.074219 64.101562 240.296875 63.539062 239.453125 C 62.976562 238.613281 62.5 237.722656 62.113281 236.785156 C 61.726562 235.851562 61.433594 234.886719 61.234375 233.894531 C 61.039062 232.902344 60.9375 231.898438 60.9375 230.886719 C 60.9375 229.871094 61.039062 228.871094 61.234375 227.875 C 61.433594 226.882812 61.726562 225.917969 62.113281 224.984375 C 62.5 224.046875 62.976562 223.160156 63.539062 222.316406 C 64.101562 221.472656 64.742188 220.695312 65.457031 219.980469 C 66.171875 219.261719 66.953125 218.625 67.792969 218.0625 C 68.636719 217.5 69.523438 217.023438 70.460938 216.636719 C 71.394531 216.25 72.359375 215.957031 73.351562 215.757812 C 74.347656 215.5625 75.347656 215.460938 76.363281 215.460938 C 77.375 215.460938 78.378906 215.5625 79.371094 215.757812 C 80.363281 215.957031 81.328125 216.25 82.265625 216.636719 C 83.199219 217.023438 84.089844 217.5 84.929688 218.0625 C 85.773438 218.625 86.550781 219.261719 87.269531 219.980469 C 87.984375 220.695312 88.625 221.472656 89.1875 222.316406 C 89.75 223.160156 90.222656 224.046875 90.609375 224.984375 C 91 225.917969 91.292969 226.882812 91.488281 227.875 C 91.6875 228.871094 91.785156 229.871094 91.785156 230.886719 Z M 91.785156 230.886719 " fill-opacity="1" fill-rule="nonzero"/><path fill="#ffffff" d="M 146.265625 230.886719 C 146.265625 231.898438 146.164062 232.902344 145.96875 233.894531 C 145.769531 234.886719 145.476562 235.851562 145.089844 236.789062 C 144.703125 237.722656 144.226562 238.613281 143.664062 239.453125 C 143.101562 240.296875 142.464844 241.074219 141.746094 241.792969 C 141.03125 242.507812 140.25 243.148438 139.410156 243.710938 C 138.566406 244.273438 137.679688 244.746094 136.742188 245.136719 C 135.808594 245.523438 134.84375 245.816406 133.847656 246.011719 C 132.855469 246.210938 131.851562 246.308594 130.839844 246.308594 C 129.828125 246.308594 128.824219 246.210938 127.832031 246.011719 C 126.839844 245.816406 125.875 245.523438 124.9375 245.136719 C 124.003906 244.746094 123.113281 244.273438 122.269531 243.710938 C 121.429688 243.148438 120.648438 242.507812 119.933594 241.792969 C 119.21875 241.074219 118.578125 240.296875 118.015625 239.453125 C 117.453125 238.613281 116.976562 237.722656 116.589844 236.789062 C 116.203125 235.851562 115.910156 234.886719 115.710938 233.894531 C 115.515625 232.902344 115.417969 231.898438 115.417969 230.886719 C 115.417969 229.871094 115.515625 228.871094 115.710938 227.875 C 115.910156 226.882812 116.203125 225.917969 116.589844 224.980469 C 116.976562 224.046875 117.453125 223.15625 118.015625 222.316406 C 118.578125 221.472656 119.21875 220.695312 119.933594 219.976562 C 120.648438 219.261719 121.429688 218.621094 122.269531 218.058594 C 123.113281 217.496094 124.003906 217.023438 124.9375 216.636719 C 125.875 216.246094 126.839844 215.953125 127.832031 215.757812 C 128.824219 215.558594 129.828125 215.460938 130.839844 215.460938 C 131.851562 215.460938 132.855469 215.558594 133.847656 215.757812 C 134.84375 215.953125 135.808594 216.246094 136.742188 216.636719 C 137.679688 217.023438 138.566406 217.496094 139.410156 218.058594 C 140.25 218.621094 141.03125 219.261719 141.746094 219.976562 C 142.464844 220.695312 143.101562 221.472656 143.664062 222.316406 C 144.226562 223.15625 144.703125 224.046875 145.089844 224.980469 C 145.476562 225.917969 145.769531 226.882812 145.96875 227.875 C 146.164062 228.871094 146.265625 229.871094 146.265625 230.886719 Z M 146.265625 230.886719 " fill-opacity="1" fill-rule="nonzero"/><path fill="#ffffff" d="M 197.855469 230.886719 C 197.855469 231.898438 197.757812 232.902344 197.558594 233.894531 C 197.363281 234.886719 197.070312 235.851562 196.679688 236.785156 C 196.292969 237.722656 195.820312 238.613281 195.257812 239.453125 C 194.695312 240.296875 194.054688 241.074219 193.339844 241.789062 C 192.621094 242.507812 191.84375 243.144531 191 243.707031 C 190.160156 244.269531 189.269531 244.746094 188.335938 245.132812 C 187.398438 245.519531 186.433594 245.8125 185.441406 246.011719 C 184.449219 246.210938 183.445312 246.308594 182.433594 246.308594 C 181.417969 246.308594 180.417969 246.210938 179.421875 246.011719 C 178.429688 245.8125 177.464844 245.519531 176.53125 245.132812 C 175.59375 244.746094 174.707031 244.269531 173.863281 243.707031 C 173.023438 243.144531 172.242188 242.507812 171.527344 241.789062 C 170.8125 241.074219 170.171875 240.296875 169.609375 239.453125 C 169.046875 238.613281 168.570312 237.722656 168.183594 236.785156 C 167.796875 235.851562 167.503906 234.886719 167.304688 233.894531 C 167.109375 232.902344 167.007812 231.898438 167.007812 230.886719 C 167.007812 229.871094 167.109375 228.871094 167.304688 227.875 C 167.503906 226.882812 167.796875 225.917969 168.183594 224.984375 C 168.570312 224.046875 169.046875 223.160156 169.609375 222.316406 C 170.171875 221.472656 170.8125 220.695312 171.527344 219.980469 C 172.242188 219.261719 173.023438 218.625 173.863281 218.0625 C 174.707031 217.5 175.59375 217.023438 176.53125 216.636719 C 177.464844 216.25 178.429688 215.957031 179.421875 215.757812 C 180.417969 215.5625 181.417969 215.460938 182.433594 215.460938 C 183.445312 215.460938 184.449219 215.5625 185.441406 215.757812 C 186.433594 215.957031 187.398438 216.25 188.335938 216.636719 C 189.269531 217.023438 190.160156 217.5 191 218.0625 C 191.84375 218.625 192.621094 219.261719 193.339844 219.980469 C 194.054688 220.695312 194.695312 221.472656 195.257812 222.316406 C 195.820312 223.160156 196.292969 224.046875 196.679688 224.984375 C 197.070312 225.917969 197.363281 226.882812 197.558594 227.875 C 197.757812 228.871094 197.855469 229.871094 197.855469 230.886719 Z M 197.855469 230.886719 " fill-opacity="1" fill-rule="nonzero"/><g clip-path="url(#e0db135ea5)"><path fill="#a5d8dc" d="M 57.355469 152.234375 L 198.289062 152.234375 L 198.289062 311.882812 L 57.355469 311.882812 Z M 57.355469 152.234375 " fill-opacity="1" fill-rule="nonzero"/></g><g clip-path="url(#34438632d3)"><path fill="#ffffff" d="M 174.1875 170.84375 L 132.457031 170.84375 L 132.457031 156.933594 C 132.457031 156.628906 132.429688 156.328125 132.371094 156.027344 C 132.308594 155.730469 132.222656 155.441406 132.105469 155.160156 C 131.988281 154.878906 131.847656 154.609375 131.675781 154.355469 C 131.507812 154.105469 131.316406 153.871094 131.101562 153.65625 C 130.886719 153.4375 130.652344 153.246094 130.398438 153.078125 C 130.144531 152.910156 129.878906 152.765625 129.597656 152.648438 C 129.316406 152.53125 129.023438 152.445312 128.726562 152.386719 C 128.429688 152.328125 128.125 152.296875 127.820312 152.296875 C 127.519531 152.296875 127.214844 152.328125 126.917969 152.386719 C 126.617188 152.445312 126.328125 152.53125 126.046875 152.648438 C 125.765625 152.765625 125.5 152.910156 125.246094 153.078125 C 124.992188 153.246094 124.757812 153.4375 124.542969 153.65625 C 124.328125 153.871094 124.136719 154.105469 123.96875 154.355469 C 123.796875 154.609375 123.65625 154.878906 123.539062 155.160156 C 123.421875 155.441406 123.332031 155.730469 123.273438 156.027344 C 123.214844 156.328125 123.183594 156.628906 123.183594 156.933594 L 123.183594 170.84375 L 81.453125 170.84375 C 80.695312 170.84375 79.9375 170.882812 79.183594 170.957031 C 78.429688 171.03125 77.679688 171.144531 76.933594 171.292969 C 76.1875 171.441406 75.453125 171.625 74.726562 171.847656 C 74 172.066406 73.289062 172.324219 72.585938 172.613281 C 71.886719 172.90625 71.199219 173.230469 70.53125 173.585938 C 69.859375 173.945312 69.210938 174.335938 68.578125 174.757812 C 67.949219 175.179688 67.339844 175.628906 66.753906 176.113281 C 66.167969 176.59375 65.605469 177.101562 65.066406 177.640625 C 64.53125 178.175781 64.023438 178.738281 63.539062 179.324219 C 63.058594 179.910156 62.605469 180.519531 62.183594 181.152344 C 61.761719 181.78125 61.375 182.433594 61.015625 183.101562 C 60.65625 183.773438 60.332031 184.457031 60.042969 185.160156 C 59.75 185.859375 59.496094 186.574219 59.273438 187.300781 C 59.054688 188.027344 58.867188 188.761719 58.71875 189.503906 C 58.570312 190.25 58.460938 191 58.386719 191.753906 C 58.308594 192.511719 58.273438 193.269531 58.269531 194.027344 L 58.269531 277.488281 C 58.273438 278.246094 58.308594 279.003906 58.386719 279.757812 C 58.460938 280.515625 58.570312 281.265625 58.71875 282.007812 C 58.867188 282.753906 59.054688 283.488281 59.273438 284.214844 C 59.496094 284.941406 59.75 285.65625 60.042969 286.355469 C 60.332031 287.058594 60.65625 287.742188 61.015625 288.414062 C 61.375 289.082031 61.761719 289.730469 62.183594 290.363281 C 62.605469 290.992188 63.058594 291.601562 63.539062 292.191406 C 64.023438 292.777344 64.53125 293.339844 65.066406 293.875 C 65.605469 294.410156 66.167969 294.921875 66.753906 295.402344 C 67.339844 295.882812 67.949219 296.335938 68.578125 296.757812 C 69.210938 297.179688 69.859375 297.570312 70.53125 297.929688 C 71.199219 298.285156 71.886719 298.609375 72.585938 298.902344 C 73.289062 299.191406 74 299.449219 74.726562 299.667969 C 75.453125 299.890625 76.1875 300.074219 76.933594 300.222656 C 77.679688 300.371094 78.429688 300.484375 79.183594 300.558594 C 79.9375 300.632812 80.695312 300.671875 81.453125 300.671875 L 106.792969 300.671875 L 123.964844 326.425781 C 124.175781 326.746094 124.421875 327.03125 124.707031 327.289062 C 124.988281 327.542969 125.296875 327.761719 125.632812 327.941406 C 125.972656 328.121094 126.324219 328.257812 126.695312 328.351562 C 127.066406 328.445312 127.441406 328.492188 127.820312 328.492188 C 128.203125 328.492188 128.578125 328.445312 128.949219 328.351562 C 129.320312 328.257812 129.671875 328.121094 130.011719 327.941406 C 130.347656 327.761719 130.65625 327.542969 130.9375 327.289062 C 131.222656 327.03125 131.46875 326.746094 131.679688 326.425781 L 148.851562 300.671875 L 174.1875 300.671875 C 174.949219 300.671875 175.707031 300.632812 176.460938 300.558594 C 177.214844 300.484375 177.964844 300.371094 178.710938 300.222656 C 179.457031 300.074219 180.191406 299.890625 180.917969 299.667969 C 181.644531 299.449219 182.355469 299.191406 183.058594 298.902344 C 183.757812 298.609375 184.445312 298.285156 185.113281 297.929688 C 185.78125 297.570312 186.433594 297.179688 187.0625 296.757812 C 187.695312 296.335938 188.304688 295.882812 188.890625 295.402344 C 189.476562 294.921875 190.039062 294.410156 190.578125 293.875 C 191.113281 293.339844 191.621094 292.777344 192.105469 292.191406 C 192.585938 291.601562 193.039062 290.992188 193.460938 290.363281 C 193.882812 289.730469 194.269531 289.082031 194.628906 288.414062 C 194.988281 287.742188 195.3125 287.058594 195.601562 286.355469 C 195.894531 285.65625 196.148438 284.941406 196.371094 284.214844 C 196.589844 283.488281 196.773438 282.753906 196.925781 282.007812 C 197.074219 281.265625 197.183594 280.515625 197.257812 279.757812 C 197.335938 279.003906 197.371094 278.246094 197.371094 277.488281 L 197.371094 194.027344 C 197.371094 193.269531 197.335938 192.511719 197.257812 191.753906 C 197.183594 191 197.074219 190.25 196.925781 189.503906 C 196.773438 188.761719 196.589844 188.027344 196.371094 187.300781 C 196.148438 186.574219 195.894531 185.859375 195.601562 185.160156 C 195.3125 184.457031 194.988281 183.773438 194.628906 183.101562 C 194.269531 182.433594 193.882812 181.78125 193.460938 181.152344 C 193.039062 180.519531 192.585938 179.910156 192.105469 179.324219 C 191.621094 178.738281 191.113281 178.175781 190.578125 177.640625 C 190.039062 177.101562 189.476562 176.59375 188.890625 176.113281 C 188.304688 175.628906 187.695312 175.179688 187.0625 174.757812 C 186.433594 174.335938 185.78125 173.945312 185.113281 173.585938 C 184.445312 173.230469 183.757812 172.90625 183.058594 172.613281 C 182.355469 172.324219 181.644531 172.066406 180.917969 171.847656 C 180.191406 171.625 179.457031 171.441406 178.710938 171.292969 C 177.964844 171.144531 177.214844 171.03125 176.460938 170.957031 C 175.707031 170.882812 174.949219 170.84375 174.1875 170.84375 Z M 188.097656 277.488281 C 188.097656 278.402344 188.007812 279.304688 187.828125 280.199219 C 187.652344 281.097656 187.386719 281.964844 187.035156 282.808594 C 186.6875 283.652344 186.257812 284.453125 185.75 285.210938 C 185.242188 285.972656 184.667969 286.675781 184.019531 287.320312 C 183.375 287.964844 182.671875 288.542969 181.914062 289.050781 C 181.15625 289.558594 180.355469 289.984375 179.511719 290.335938 C 178.667969 290.683594 177.796875 290.949219 176.902344 291.128906 C 176.007812 291.308594 175.101562 291.398438 174.1875 291.398438 L 146.367188 291.398438 C 145.59375 291.398438 144.863281 291.582031 144.183594 291.949219 C 143.5 292.3125 142.941406 292.820312 142.511719 293.464844 L 127.820312 315.496094 L 113.132812 293.460938 C 112.703125 292.820312 112.144531 292.3125 111.460938 291.949219 C 110.777344 291.582031 110.050781 291.398438 109.273438 291.398438 L 81.453125 291.398438 C 80.542969 291.398438 79.636719 291.308594 78.742188 291.128906 C 77.847656 290.949219 76.976562 290.683594 76.132812 290.335938 C 75.289062 289.984375 74.488281 289.558594 73.730469 289.050781 C 72.972656 288.542969 72.269531 287.964844 71.625 287.320312 C 70.976562 286.675781 70.402344 285.972656 69.894531 285.210938 C 69.386719 284.453125 68.957031 283.652344 68.609375 282.808594 C 68.257812 281.964844 67.992188 281.097656 67.816406 280.199219 C 67.636719 279.304688 67.546875 278.402344 67.542969 277.488281 L 67.542969 263.578125 L 188.097656 263.578125 Z M 188.097656 254.304688 L 67.542969 254.304688 L 67.542969 194.027344 C 67.546875 193.113281 67.636719 192.210938 67.816406 191.3125 C 67.992188 190.417969 68.257812 189.550781 68.609375 188.707031 C 68.957031 187.863281 69.386719 187.0625 69.894531 186.300781 C 70.402344 185.542969 70.976562 184.839844 71.625 184.195312 C 72.269531 183.550781 72.972656 182.972656 73.730469 182.464844 C 74.488281 181.957031 75.289062 181.53125 76.132812 181.179688 C 76.976562 180.828125 77.847656 180.566406 78.742188 180.386719 C 79.636719 180.207031 80.542969 180.117188 81.453125 180.117188 L 174.1875 180.117188 C 175.101562 180.117188 176.007812 180.207031 176.902344 180.386719 C 177.796875 180.566406 178.667969 180.828125 179.511719 181.179688 C 180.355469 181.53125 181.15625 181.957031 181.914062 182.464844 C 182.671875 182.972656 183.375 183.550781 184.019531 184.195312 C 184.667969 184.839844 185.242188 185.542969 185.75 186.300781 C 186.257812 187.0625 186.6875 187.863281 187.035156 188.707031 C 187.386719 189.550781 187.652344 190.417969 187.828125 191.3125 C 188.007812 192.210938 188.097656 193.113281 188.097656 194.027344 Z M 109.273438 221.847656 C 109.273438 222.457031 109.214844 223.058594 109.097656 223.65625 C 108.976562 224.253906 108.800781 224.832031 108.570312 225.394531 C 108.335938 225.957031 108.050781 226.492188 107.710938 227 C 107.375 227.503906 106.988281 227.972656 106.558594 228.40625 C 106.128906 228.835938 105.660156 229.21875 105.152344 229.558594 C 104.648438 229.894531 104.113281 230.183594 103.550781 230.414062 C 102.988281 230.648438 102.410156 230.824219 101.8125 230.941406 C 101.214844 231.0625 100.609375 231.121094 100 231.121094 C 99.394531 231.121094 98.789062 231.0625 98.191406 230.941406 C 97.59375 230.824219 97.015625 230.648438 96.453125 230.414062 C 95.890625 230.183594 95.355469 229.894531 94.851562 229.558594 C 94.34375 229.21875 93.875 228.835938 93.445312 228.40625 C 93.015625 227.972656 92.628906 227.503906 92.292969 227 C 91.953125 226.492188 91.667969 225.957031 91.433594 225.394531 C 91.203125 224.832031 91.023438 224.253906 90.90625 223.65625 C 90.789062 223.058594 90.726562 222.457031 90.726562 221.847656 C 90.726562 221.238281 90.789062 220.636719 90.90625 220.039062 C 91.023438 219.441406 91.203125 218.859375 91.433594 218.296875 C 91.667969 217.734375 91.953125 217.203125 92.292969 216.695312 C 92.628906 216.1875 93.015625 215.71875 93.445312 215.289062 C 93.875 214.859375 94.34375 214.476562 94.851562 214.136719 C 95.355469 213.796875 95.890625 213.511719 96.453125 213.28125 C 97.015625 213.046875 97.59375 212.871094 98.191406 212.753906 C 98.789062 212.632812 99.394531 212.574219 100 212.574219 C 100.609375 212.574219 101.214844 212.632812 101.8125 212.753906 C 102.410156 212.871094 102.988281 213.046875 103.550781 213.28125 C 104.113281 213.511719 104.648438 213.796875 105.152344 214.136719 C 105.660156 214.476562 106.128906 214.859375 106.558594 215.289062 C 106.988281 215.71875 107.375 216.1875 107.710938 216.695312 C 108.050781 217.203125 108.335938 217.734375 108.570312 218.296875 C 108.800781 218.859375 108.976562 219.441406 109.097656 220.039062 C 109.214844 220.636719 109.273438 221.238281 109.273438 221.847656 Z M 164.914062 221.847656 C 164.914062 222.457031 164.855469 223.058594 164.738281 223.65625 C 164.617188 224.253906 164.441406 224.832031 164.210938 225.394531 C 163.976562 225.957031 163.691406 226.492188 163.351562 227 C 163.015625 227.503906 162.628906 227.972656 162.199219 228.40625 C 161.769531 228.835938 161.300781 229.21875 160.792969 229.558594 C 160.289062 229.894531 159.753906 230.183594 159.191406 230.414062 C 158.628906 230.648438 158.046875 230.824219 157.453125 230.941406 C 156.855469 231.0625 156.25 231.121094 155.640625 231.121094 C 155.035156 231.121094 154.429688 231.0625 153.832031 230.941406 C 153.234375 230.824219 152.65625 230.648438 152.09375 230.414062 C 151.53125 230.183594 150.996094 229.894531 150.492188 229.558594 C 149.984375 229.21875 149.515625 228.835938 149.085938 228.40625 C 148.65625 227.972656 148.269531 227.503906 147.933594 227 C 147.59375 226.492188 147.308594 225.957031 147.074219 225.394531 C 146.84375 224.832031 146.664062 224.253906 146.546875 223.65625 C 146.429688 223.058594 146.367188 222.457031 146.367188 221.847656 C 146.367188 221.238281 146.429688 220.636719 146.546875 220.039062 C 146.664062 219.441406 146.84375 218.859375 147.074219 218.296875 C 147.308594 217.734375 147.59375 217.203125 147.933594 216.695312 C 148.269531 216.1875 148.65625 215.71875 149.085938 215.289062 C 149.515625 214.859375 149.984375 214.476562 150.492188 214.136719 C 150.996094 213.796875 151.53125 213.511719 152.09375 213.28125 C 152.65625 213.046875 153.234375 212.871094 153.832031 212.753906 C 154.429688 212.632812 155.035156 212.574219 155.640625 212.574219 C 156.25 212.574219 156.855469 212.632812 157.453125 212.753906 C 158.046875 212.871094 158.628906 213.046875 159.191406 213.28125 C 159.753906 213.511719 160.289062 213.796875 160.792969 214.136719 C 161.300781 214.476562 161.769531 214.859375 162.199219 215.289062 C 162.628906 215.71875 163.015625 216.1875 163.351562 216.695312 C 163.691406 217.203125 163.976562 217.734375 164.210938 218.296875 C 164.441406 218.859375 164.617188 219.441406 164.738281 220.039062 C 164.855469 220.636719 164.914062 221.238281 164.914062 221.847656 Z M 39.722656 203.300781 L 39.722656 240.394531 C 39.722656 240.699219 39.695312 241 39.636719 241.296875 C 39.574219 241.597656 39.488281 241.886719 39.371094 242.167969 C 39.253906 242.449219 39.113281 242.71875 38.941406 242.96875 C 38.773438 243.222656 38.582031 243.457031 38.367188 243.671875 C 38.152344 243.886719 37.917969 244.082031 37.664062 244.25 C 37.410156 244.417969 37.144531 244.5625 36.863281 244.679688 C 36.582031 244.792969 36.289062 244.882812 35.992188 244.941406 C 35.695312 245 35.390625 245.03125 35.085938 245.03125 C 34.785156 245.03125 34.480469 245 34.183594 244.941406 C 33.882812 244.882812 33.59375 244.792969 33.3125 244.679688 C 33.03125 244.5625 32.765625 244.417969 32.511719 244.25 C 32.257812 244.082031 32.023438 243.886719 31.808594 243.671875 C 31.59375 243.457031 31.402344 243.222656 31.234375 242.96875 C 31.0625 242.71875 30.921875 242.449219 30.804688 242.167969 C 30.6875 241.886719 30.597656 241.597656 30.539062 241.296875 C 30.480469 241 30.449219 240.699219 30.449219 240.394531 L 30.449219 203.300781 C 30.449219 202.996094 30.480469 202.695312 30.539062 202.394531 C 30.597656 202.097656 30.6875 201.808594 30.804688 201.527344 C 30.921875 201.246094 31.0625 200.976562 31.234375 200.722656 C 31.402344 200.472656 31.59375 200.238281 31.808594 200.023438 C 32.023438 199.804688 32.257812 199.613281 32.511719 199.445312 C 32.765625 199.277344 33.03125 199.132812 33.3125 199.015625 C 33.59375 198.898438 33.882812 198.8125 34.183594 198.753906 C 34.480469 198.695312 34.785156 198.664062 35.085938 198.664062 C 35.390625 198.664062 35.695312 198.695312 35.992188 198.753906 C 36.289062 198.8125 36.582031 198.898438 36.863281 199.015625 C 37.144531 199.132812 37.410156 199.277344 37.664062 199.445312 C 37.917969 199.613281 38.152344 199.804688 38.367188 200.023438 C 38.582031 200.238281 38.773438 200.472656 38.941406 200.722656 C 39.113281 200.976562 39.253906 201.246094 39.371094 201.527344 C 39.488281 201.808594 39.574219 202.097656 39.636719 202.394531 C 39.695312 202.695312 39.722656 202.996094 39.722656 203.300781 Z M 225.191406 203.300781 L 225.191406 240.394531 C 225.191406 240.699219 225.164062 241 225.105469 241.296875 C 225.042969 241.597656 224.957031 241.886719 224.839844 242.167969 C 224.722656 242.449219 224.582031 242.71875 224.410156 242.96875 C 224.242188 243.222656 224.050781 243.457031 223.835938 243.671875 C 223.621094 243.886719 223.386719 244.082031 223.132812 244.25 C 222.878906 244.417969 222.613281 244.5625 222.332031 244.679688 C 222.050781 244.792969 221.757812 244.882812 221.460938 244.941406 C 221.164062 245 220.859375 245.03125 220.554688 245.03125 C 220.253906 245.03125 219.949219 245 219.652344 244.941406 C 219.351562 244.882812 219.0625 244.792969 218.78125 244.679688 C 218.5 244.5625 218.234375 244.417969 217.980469 244.25 C 217.726562 244.082031 217.492188 243.886719 217.277344 243.671875 C 217.0625 243.457031 216.871094 243.222656 216.703125 242.96875 C 216.53125 242.71875 216.390625 242.449219 216.273438 242.167969 C 216.15625 241.886719 216.066406 241.597656 216.007812 241.296875 C 215.949219 241 215.917969 240.699219 215.917969 240.394531 L 215.917969 203.300781 C 215.917969 202.996094 215.949219 202.695312 216.007812 202.394531 C 216.066406 202.097656 216.15625 201.808594 216.273438 201.527344 C 216.390625 201.246094 216.53125 200.976562 216.703125 200.722656 C 216.871094 200.472656 217.0625 200.238281 217.277344 200.023438 C 217.492188 199.804688 217.726562 199.613281 217.980469 199.445312 C 218.234375 199.277344 218.5 199.132812 218.78125 199.015625 C 219.0625 198.898438 219.351562 198.8125 219.652344 198.753906 C 219.949219 198.695312 220.253906 198.664062 220.554688 198.664062 C 220.859375 198.664062 221.164062 198.695312 221.460938 198.753906 C 221.757812 198.8125 222.050781 198.898438 222.332031 199.015625 C 222.613281 199.132812 222.878906 199.277344 223.132812 199.445312 C 223.386719 199.613281 223.621094 199.804688 223.835938 200.023438 C 224.050781 200.238281 224.242188 200.472656 224.410156 200.722656 C 224.582031 200.976562 224.722656 201.246094 224.839844 201.527344 C 224.957031 201.808594 225.042969 202.097656 225.105469 202.394531 C 225.164062 202.695312 225.191406 202.996094 225.191406 203.300781 Z M 225.191406 203.300781 " fill-opacity="1" fill-rule="nonzero"/></g></svg>