<svg xmlns="http://www.w3.org/2000/svg" xmlns:xlink="http://www.w3.org/1999/xlink" width="800" zoomAndPan="magnify" viewBox="0 0 600 599.999999" height="800" preserveAspectRatio="xMidYMid meet" version="1.0"><defs><clipPath id="0b549ad8c3"><path d="M 95.027344 110.535156 L 171.816406 110.535156 L 171.816406 189.464844 L 95.027344 189.464844 Z M 95.027344 110.535156 " clip-rule="nonzero"/></clipPath></defs><path fill="#00a0c8" d="M 512.5 25 L 512.5 500 C 512.5 513.75 501.25 525 487.5 525 L 187.5 525 C 173.75 525 162.5 513.75 162.5 500 L 162.5 25 C 162.5 11.25 173.75 0 187.5 0 L 487.5 0 C 501.25 0 512.5 11.25 512.5 25 Z M 512.5 25 " fill-opacity="1" fill-rule="nonzero"/><path fill="#0082aa" d="M 487.5 50 L 487.5 525 L 187.5 525 C 173.75 525 162.5 513.75 162.5 500 L 162.5 25 L 462.5 25 C 476.25 25 487.5 36.25 487.5 50 Z M 487.5 50 " fill-opacity="1" fill-rule="nonzero"/><path fill="#c80a50" d="M 475 62.5 L 475 537.5 C 475 551.25 463.75 562.5 450 562.5 L 150 562.5 C 136.25 562.5 125 551.25 125 537.5 L 125 62.5 C 125 48.75 136.25 37.5 150 37.5 L 450 37.5 C 463.75 37.5 475 48.75 475 62.5 Z M 475 62.5 " fill-opacity="1" fill-rule="nonzero"/><path fill="#a00028" d="M 450 87.5 L 450 562.5 L 150 562.5 C 136.25 562.5 125 551.25 125 537.5 L 125 62.5 L 425 62.5 C 438.75 62.5 450 73.75 450 87.5 Z M 450 87.5 " fill-opacity="1" fill-rule="nonzero"/><path fill="#fab400" d="M 87.5 100 L 87.5 575 C 87.5 588.8125 98.6875 600 112.5 600 L 412.5 600 C 426.3125 600 437.5 588.8125 437.5 575 L 437.5 100 C 437.5 86.1875 426.3125 75 412.5 75 L 112.5 75 C 98.6875 75 87.5 86.1875 87.5 100 Z M 87.5 100 " fill-opacity="1" fill-rule="nonzero"/><path fill="#dc9600" d="M 112.5 575 L 112.5 375 C 112.5 368.101562 118.101562 362.5 125 362.5 L 400 362.5 C 406.898438 362.5 412.5 368.101562 412.5 375 L 412.5 575 C 412.5 581.898438 406.898438 587.5 400 587.5 L 125 587.5 C 118.101562 587.5 112.5 581.898438 112.5 575 Z M 112.5 575 " fill-opacity="1" fill-rule="nonzero"/><path fill="#dc9600" d="M 278.3125 178.039062 C 277.738281 178.175781 277.148438 178.226562 276.574219 178.351562 C 279.335938 165.25 285.75 153.199219 295.4375 143.5 C 300.324219 138.613281 300.324219 130.710938 295.4375 125.824219 C 290.550781 120.9375 282.636719 120.9375 277.761719 125.824219 C 272.738281 130.851562 268.425781 136.386719 264.699219 142.25 C 247.539062 107.925781 214.773438 112.5 190.175781 112.5 C 190.175781 142.085938 214.164062 166.074219 243.75 166.074219 L 253.863281 166.074219 C 252.636719 170.238281 251.789062 174.5 251.148438 178.835938 C 249.664062 178.585938 248.164062 178.398438 246.6875 178.039062 C 212.789062 169.914062 174.835938 202.875 174.835938 257.148438 C 174.835938 311.5625 212.726562 344.386719 246.6875 336.261719 C 257.113281 333.761719 267.898438 333.761719 278.324219 336.261719 C 312.226562 344.386719 350.175781 311.425781 350.175781 257.148438 C 350.164062 202.738281 312.273438 169.898438 278.3125 178.039062 Z M 278.3125 178.039062 " fill-opacity="1" fill-rule="nonzero"/><path fill="#00a0c8" d="M 190.175781 100 C 190.175781 129.585938 214.164062 153.574219 243.75 153.574219 L 270.539062 153.574219 C 270.539062 123.988281 246.550781 100 216.960938 100 Z M 190.175781 100 " fill-opacity="1" fill-rule="nonzero"/><path fill="#0a5078" d="M 250 180.363281 C 250 155.050781 259.863281 131.238281 277.773438 113.324219 C 282.648438 108.4375 290.5625 108.4375 295.449219 113.324219 C 300.335938 118.210938 300.335938 126.113281 295.449219 131 C 282.261719 144.1875 275 161.726562 275 180.363281 Z M 250 180.363281 " fill-opacity="1" fill-rule="nonzero"/><path fill="#c80a50" d="M 278.3125 165.539062 C 267.886719 168.039062 257.101562 168.039062 246.675781 165.539062 C 212.773438 157.414062 174.824219 190.375 174.824219 244.648438 C 174.824219 299.0625 212.710938 331.886719 246.675781 323.761719 C 257.101562 321.261719 267.886719 321.261719 278.3125 323.761719 C 312.210938 331.886719 350.164062 298.925781 350.164062 244.648438 C 350.164062 190.238281 312.261719 157.398438 278.3125 165.539062 Z M 278.3125 165.539062 " fill-opacity="1" fill-rule="nonzero"/><path fill="#00a0c8" d="M 112.5 562.5 L 112.5 362.5 C 112.5 355.601562 118.101562 350 125 350 L 400 350 C 406.898438 350 412.5 355.601562 412.5 362.5 L 412.5 562.5 C 412.5 569.398438 406.898438 575 400 575 L 125 575 C 118.101562 575 112.5 569.398438 112.5 562.5 Z M 112.5 562.5 " fill-opacity="1" fill-rule="nonzero"/><path fill="#f0f0f0" d="M 350 487.5 C 343.101562 487.5 337.5 481.898438 337.5 475 L 337.5 450 C 337.5 443.085938 331.914062 437.5 325 437.5 L 300 437.5 C 279.324219 437.5 262.5 454.324219 262.5 475 C 262.5 495.675781 279.324219 512.5 300 512.5 C 309.636719 512.5 318.351562 508.738281 325 502.75 C 331.648438 508.75 340.363281 512.5 350 512.5 C 356.914062 512.5 362.5 506.914062 362.5 500 C 362.5 493.085938 356.914062 487.5 350 487.5 Z M 300 487.5 C 293.113281 487.5 287.5 481.898438 287.5 475 C 287.5 468.101562 293.113281 462.5 300 462.5 L 312.5 462.5 L 312.5 475 C 312.5 481.898438 306.886719 487.5 300 487.5 Z M 300 487.5 " fill-opacity="1" fill-rule="nonzero"/><path fill="#f0f0f0" d="M 200 400 C 179.324219 400 162.5 416.824219 162.5 437.5 L 162.5 500 C 162.5 506.914062 168.101562 512.5 175 512.5 C 181.898438 512.5 187.5 506.914062 187.5 500 L 187.5 475 L 212.5 475 L 212.5 500 C 212.5 506.914062 218.101562 512.5 225 512.5 C 231.898438 512.5 237.5 506.914062 237.5 500 L 237.5 437.5 C 237.5 416.824219 220.675781 400 200 400 Z M 187.5 450 L 187.5 437.5 C 187.5 430.601562 193.113281 425 200 425 C 206.886719 425 212.5 430.601562 212.5 437.5 L 212.5 450 Z M 187.5 450 " fill-opacity="1" fill-rule="nonzero"/><path fill="#00a0c8" d="M 587.5 287.5 L 562.5 287.5 C 555.585938 287.5 550 293.101562 550 300 C 550 306.898438 555.585938 312.5 562.5 312.5 L 587.5 312.5 C 594.414062 312.5 600 306.898438 600 300 C 600 293.101562 594.414062 287.5 587.5 287.5 Z M 587.5 287.5 " fill-opacity="1" fill-rule="nonzero"/><path fill="#fab400" d="M 553.664062 228.664062 L 535.988281 246.335938 C 531.101562 251.226562 531.101562 259.125 535.988281 264.011719 C 540.875 268.898438 548.773438 268.898438 553.664062 264.011719 L 571.335938 246.335938 C 576.226562 241.449219 576.226562 233.550781 571.335938 228.664062 C 566.449219 223.773438 558.550781 223.773438 553.664062 228.664062 Z M 553.664062 228.664062 " fill-opacity="1" fill-rule="nonzero"/><path fill="#c80a50" d="M 535.988281 335.988281 C 531.101562 340.875 531.101562 348.773438 535.988281 353.664062 L 553.664062 371.335938 C 558.550781 376.226562 566.449219 376.226562 571.335938 371.335938 C 576.226562 366.449219 576.226562 358.550781 571.335938 353.664062 L 553.664062 335.988281 C 548.773438 331.101562 540.875 331.101562 535.988281 335.988281 Z M 535.988281 335.988281 " fill-opacity="1" fill-rule="nonzero"/><path fill="#fab400" d="M 12.5 312.5 L 37.5 312.5 C 44.414062 312.5 50 306.898438 50 300 C 50 293.101562 44.414062 287.5 37.5 287.5 L 12.5 287.5 C 5.585938 287.5 0 293.101562 0 300 C 0 306.898438 5.585938 312.5 12.5 312.5 Z M 12.5 312.5 " fill-opacity="1" fill-rule="nonzero"/><path fill="#c80a50" d="M 46.335938 371.335938 L 64.011719 353.664062 C 68.898438 348.773438 68.898438 340.875 64.011719 335.988281 C 59.125 331.101562 51.226562 331.101562 46.335938 335.988281 L 28.664062 353.664062 C 23.773438 358.550781 23.773438 366.449219 28.664062 371.335938 C 33.550781 376.226562 41.449219 376.226562 46.335938 371.335938 Z M 46.335938 371.335938 " fill-opacity="1" fill-rule="nonzero"/><path fill="#00a0c8" d="M 64.011719 264.011719 C 68.898438 259.125 68.898438 251.226562 64.011719 246.335938 L 46.335938 228.664062 C 41.449219 223.773438 33.550781 223.773438 28.664062 228.664062 C 23.773438 233.550781 23.773438 241.449219 28.664062 246.335938 L 46.335938 264.011719 C 51.226562 268.898438 59.125 268.898438 64.011719 264.011719 Z M 64.011719 264.011719 " fill-opacity="1" fill-rule="nonzero"/><g clip-path="url(#0b549ad8c3)"><path fill="#fab400" d="M 95.027344 110.535156 L 171.816406 110.535156 L 171.816406 189.425781 L 95.027344 189.425781 Z M 95.027344 110.535156 " fill-opacity="1" fill-rule="nonzero"/></g></svg>