<svg xmlns="http://www.w3.org/2000/svg" xmlns:xlink="http://www.w3.org/1999/xlink" width="800" zoomAndPan="magnify" viewBox="0 0 600 599.999999" height="800" preserveAspectRatio="xMidYMid meet" version="1.0"><defs><clipPath id="44cf9b4e2d"><path d="M 447 386.097656 L 600 386.097656 L 600 516.753906 L 447 516.753906 Z M 447 386.097656 " clip-rule="nonzero"/></clipPath><clipPath id="db329b3692"><path d="M 334.074219 258 L 562.839844 258 L 562.839844 516.753906 L 334.074219 516.753906 Z M 334.074219 258 " clip-rule="nonzero"/></clipPath><clipPath id="c599aeff07"><path d="M 76.253906 362 L 228 362 L 228 516.753906 L 76.253906 516.753906 Z M 76.253906 362 " clip-rule="nonzero"/></clipPath><clipPath id="5bfccd1d84"><path d="M 54 442 L 164 442 L 164 516.753906 L 54 516.753906 Z M 54 442 " clip-rule="nonzero"/></clipPath><clipPath id="e6988c0228"><path d="M 212 93.179688 L 420 93.179688 L 420 516.753906 L 212 516.753906 Z M 212 93.179688 " clip-rule="nonzero"/></clipPath><clipPath id="0d1ed9e85f"><path d="M 203 93.179688 L 411 93.179688 L 411 516.753906 L 203 516.753906 Z M 203 93.179688 " clip-rule="nonzero"/></clipPath><clipPath id="bcd1c32710"><path d="M 277.183594 135.542969 L 297.761719 135.542969 L 297.761719 145 L 277.183594 145 Z M 277.183594 135.542969 " clip-rule="nonzero"/></clipPath><clipPath id="b7c9b849f9"><path d="M 297.632812 135.964844 C 294.746094 141.761719 286.707031 145.445312 281.863281 144.074219 C 279.519531 143.414062 277.847656 140.164062 277.847656 136.675781 C 282.582031 138.292969 292.882812 137.863281 297.632812 135.964844 Z M 297.632812 135.964844 " clip-rule="nonzero"/></clipPath><clipPath id="bf18b9e064"><path d="M 278 135.542969 L 297.761719 135.542969 L 297.761719 140.386719 L 278 140.386719 Z M 278 135.542969 " clip-rule="nonzero"/></clipPath><clipPath id="ebb279cb52"><path d="M 297.632812 135.964844 C 294.746094 141.761719 286.707031 145.445312 281.863281 144.074219 C 279.519531 143.414062 277.847656 140.164062 277.847656 136.675781 C 282.582031 138.292969 292.882812 137.863281 297.632812 135.964844 Z M 297.632812 135.964844 " clip-rule="nonzero"/></clipPath><clipPath id="a7ffd850e5"><path d="M 203.582031 540 L 267.003906 540 L 267.003906 593.796875 L 203.582031 593.796875 Z M 203.582031 540 " clip-rule="nonzero"/></clipPath></defs><path fill="#edf3ff" d="M 122.328125 505.070312 C 93.203125 470.765625 76.058594 428.757812 76.058594 383.378906 C 76.058594 267.671875 187.5 173.871094 324.972656 173.871094 C 462.4375 173.871094 573.878906 267.671875 573.878906 383.378906 C 573.878906 428.757812 556.738281 470.765625 527.609375 505.070312 L 122.328125 505.070312 " fill-opacity="1" fill-rule="nonzero"/><g clip-path="url(#44cf9b4e2d)"><path fill="#0a54c2" d="M 447.472656 516.714844 C 447.675781 448.785156 501.132812 394.65625 600.054688 386.289062 C 579.421875 424.085938 598.214844 455.800781 570.109375 485.628906 C 548.382812 508.675781 507.355469 516.730469 507.355469 516.730469 L 447.472656 516.714844 " fill-opacity="1" fill-rule="nonzero"/></g><path fill="#0066e3" d="M 478.371094 453.617188 C 470.734375 465.5 450.664062 500.414062 459.183594 506.550781 C 467.699219 512.683594 530.003906 505.875 542.769531 497.179688 C 566.226562 481.203125 592.238281 397.714844 592.597656 392.378906 C 592.953125 387.039062 507.414062 408.453125 478.371094 453.617188 " fill-opacity="1" fill-rule="nonzero"/><g clip-path="url(#db329b3692)"><path fill="#0049a7" d="M 562.054688 259.171875 C 550.34375 291.171875 557.554688 308.863281 549.351562 337.199219 C 541.152344 365.535156 518.644531 374.847656 511.878906 395.773438 C 497.539062 440.128906 521.625 484.449219 476.734375 516.664062 L 342.667969 516.664062 C 326.320312 496.355469 335.902344 436.800781 364.429688 409.351562 C 392.957031 381.902344 417.816406 382.152344 431.316406 368.089844 C 451.292969 347.277344 447.222656 311.011719 468.660156 286.5 C 482.09375 271.148438 517.867188 255.433594 562.054688 259.171875 " fill-opacity="1" fill-rule="nonzero"/></g><path fill="#0c64c7" d="M 553.507812 262.808594 C 557.765625 265.011719 546.261719 278.578125 543.890625 293.050781 C 541.515625 307.523438 542.210938 323.957031 536.964844 339.777344 C 531.714844 355.601562 489.84375 378.726562 485.335938 394.003906 C 480.832031 409.285156 494.636719 475.441406 489.136719 487.644531 C 483.632812 499.851562 402.710938 506.9375 383.523438 490.554688 C 364.339844 474.171875 374.257812 414.421875 388.566406 404.621094 C 402.871094 394.8125 438.214844 377.542969 446.21875 354.667969 C 454.226562 331.796875 462.300781 293.207031 485.335938 281.925781 C 508.375 270.640625 550.097656 261.039062 553.507812 262.808594 " fill-opacity="1" fill-rule="nonzero"/><g clip-path="url(#c599aeff07)"><path fill="#0c2399" d="M 223.335938 516.664062 C 223.335938 516.664062 236.890625 486.789062 217.472656 457.09375 C 205.972656 439.511719 182.269531 435.664062 165.179688 420.738281 C 128.746094 388.925781 126.378906 365.953125 76.675781 362.355469 C 81.769531 387.570312 73.261719 445.570312 98.152344 484.078125 C 108 499.316406 126.042969 509.914062 147.730469 516.664062 L 223.335938 516.664062 " fill-opacity="1" fill-rule="nonzero"/></g><path fill="#183ab5" d="M 216.804688 472.382812 C 205.972656 440.632812 168.273438 444.578125 158.179688 435.570312 C 143.925781 422.855469 143.441406 399.609375 124.804688 384.039062 C 106.171875 368.464844 88.21875 365.839844 86.417969 366.742188 C 84.621094 367.640625 97.710938 388.394531 98.441406 412.039062 C 99.167969 435.683594 88.675781 470.011719 118.4375 487.933594 C 148.199219 505.859375 170.238281 508.105469 189.132812 506.308594 C 208.023438 504.507812 221.457031 486.035156 216.804688 472.382812 " fill-opacity="1" fill-rule="nonzero"/><g clip-path="url(#5bfccd1d84)"><path fill="#0045cf" d="M 163.457031 516.730469 C 163.328125 473.789062 116.71875 447.773438 54.183594 442.484375 C 67.230469 466.375 62.734375 481.203125 80.496094 500.054688 C 94.230469 514.625 112.53125 516.753906 112.53125 516.753906 L 163.457031 516.730469 " fill-opacity="1" fill-rule="nonzero"/></g><path fill="#005df9" d="M 143.925781 476.84375 C 148.753906 484.355469 161.4375 506.421875 156.054688 510.300781 C 150.671875 514.179688 111.539062 510.355469 102.988281 505.632812 C 94.445312 500.910156 67.230469 452.105469 67.003906 448.730469 C 66.78125 445.359375 125.566406 448.292969 143.925781 476.84375 " fill-opacity="1" fill-rule="nonzero"/><g clip-path="url(#e6988c0228)"><path fill="#fffffc" d="M 419.421875 115.382812 L 419.421875 494.851562 C 419.421875 506.875 411.035156 516.664062 400.617188 516.664062 L 230.976562 516.664062 C 220.558594 516.664062 212.019531 506.875 212.019531 494.851562 L 212.019531 115.382812 C 212.019531 103.359375 220.558594 93.625 230.976562 93.625 L 400.617188 93.625 C 411.035156 93.625 419.421875 103.359375 419.421875 115.382812 " fill-opacity="1" fill-rule="nonzero"/></g><g clip-path="url(#0d1ed9e85f)"><path fill="#005df9" d="M 410.457031 115.382812 L 410.457031 494.851562 C 410.457031 506.875 402.070312 516.664062 391.652344 516.664062 L 222.011719 516.664062 C 211.59375 516.664062 203.054688 506.875 203.054688 494.851562 L 203.054688 115.382812 C 203.054688 103.359375 211.59375 93.625 222.011719 93.625 L 391.652344 93.625 C 402.070312 93.625 410.457031 103.359375 410.457031 115.382812 " fill-opacity="1" fill-rule="nonzero"/></g><path fill="#8abaff" d="M 251.714844 493.402344 L 362.28125 493.402344 C 381.660156 493.402344 397.375 477.695312 397.375 458.3125 L 397.375 144.460938 C 397.375 125.082031 381.660156 109.375 362.28125 109.375 L 251.714844 109.375 C 232.332031 109.375 216.625 125.082031 216.625 144.460938 L 216.625 458.3125 C 216.625 477.695312 232.332031 493.402344 251.714844 493.402344 " fill-opacity="1" fill-rule="nonzero"/><path fill="#005df9" d="M 419.421875 141.472656 C 419.085938 141.472656 418.816406 141.203125 418.816406 140.867188 L 418.816406 115.386719 C 418.816406 103.730469 409.945312 94.25 399.039062 94.25 C 398.703125 94.25 398.433594 93.980469 398.433594 93.644531 C 398.433594 93.3125 398.703125 93.042969 399.039062 93.042969 C 410.609375 93.042969 420.023438 103.066406 420.023438 115.386719 L 420.023438 140.867188 C 420.023438 141.203125 419.753906 141.472656 419.421875 141.472656 " fill-opacity="1" fill-rule="nonzero"/><path fill="#005df9" d="M 419.421875 219.246094 C 419.085938 219.246094 418.816406 218.976562 418.816406 218.648438 L 418.816406 202.898438 C 418.816406 202.5625 419.085938 202.292969 419.421875 202.292969 C 419.753906 202.292969 420.023438 202.5625 420.023438 202.898438 L 420.023438 218.648438 C 420.023438 218.976562 419.753906 219.246094 419.421875 219.246094 " fill-opacity="1" fill-rule="nonzero"/><path fill="#005df9" d="M 417.335938 141.472656 C 416.144531 141.472656 415.175781 142.4375 415.175781 143.628906 L 415.175781 200.136719 C 415.175781 201.328125 416.144531 202.292969 417.335938 202.292969 L 419.808594 202.292969 C 421 202.292969 421.964844 201.328125 421.964844 200.136719 L 421.964844 143.628906 C 421.964844 142.4375 421 141.472656 419.808594 141.472656 Z M 419.808594 203.496094 L 417.335938 203.496094 C 415.484375 203.496094 413.96875 201.988281 413.96875 200.136719 L 413.96875 143.628906 C 413.96875 141.777344 415.484375 140.269531 417.335938 140.269531 L 419.808594 140.269531 C 421.664062 140.269531 423.171875 141.777344 423.171875 143.628906 L 423.171875 200.136719 C 423.171875 201.988281 421.664062 203.496094 419.808594 203.496094 " fill-opacity="1" fill-rule="nonzero"/><path fill="#005df9" d="M 416.609375 219.007812 C 415.417969 219.007812 414.445312 219.976562 414.445312 221.164062 L 414.445312 244.960938 C 414.445312 246.152344 415.417969 247.121094 416.609375 247.121094 L 419.082031 247.121094 C 420.273438 247.121094 421.242188 246.152344 421.242188 244.960938 L 421.242188 221.164062 C 421.242188 219.976562 420.273438 219.007812 419.082031 219.007812 Z M 419.082031 248.320312 L 416.609375 248.320312 C 414.753906 248.320312 413.246094 246.8125 413.246094 244.960938 L 413.246094 221.164062 C 413.246094 219.308594 414.753906 217.800781 416.609375 217.800781 L 419.082031 217.800781 C 420.933594 217.800781 422.445312 219.308594 422.445312 221.164062 L 422.445312 244.960938 C 422.445312 246.8125 420.933594 248.320312 419.082031 248.320312 " fill-opacity="1" fill-rule="nonzero"/><path fill="#005df9" d="M 417.484375 200.367188 L 417.484375 143.398438 C 417.484375 141.96875 418.460938 140.867188 419.792969 140.867188 L 416.890625 140.867188 C 415.554688 140.867188 414.574219 141.96875 414.574219 143.398438 L 414.574219 200.367188 C 414.574219 201.796875 415.554688 202.898438 416.890625 202.898438 L 419.792969 202.898438 C 418.460938 202.898438 417.484375 201.796875 417.484375 200.367188 " fill-opacity="1" fill-rule="nonzero"/><path fill="#005df9" d="M 416.753906 245.144531 L 416.753906 221.074219 C 416.753906 219.640625 417.734375 218.402344 419.074219 218.402344 L 416.167969 218.402344 C 414.828125 218.402344 413.847656 219.640625 413.847656 221.074219 L 413.847656 245.144531 C 413.847656 246.570312 414.828125 247.71875 416.167969 247.71875 L 419.074219 247.71875 C 417.734375 247.71875 416.753906 246.570312 416.753906 245.144531 " fill-opacity="1" fill-rule="nonzero"/><path fill="#ffffff" d="M 376.777344 129.652344 L 351.816406 129.652344 C 351.054688 129.652344 350.441406 129.035156 350.441406 128.273438 C 350.441406 127.507812 351.054688 126.890625 351.816406 126.890625 L 376.777344 126.890625 C 377.539062 126.890625 378.160156 127.507812 378.160156 128.273438 C 378.160156 129.035156 377.539062 129.652344 376.777344 129.652344 " fill-opacity="1" fill-rule="nonzero"/><path fill="#ffffff" d="M 376.777344 136.921875 L 351.816406 136.921875 C 351.054688 136.921875 350.441406 136.300781 350.441406 135.539062 C 350.441406 134.777344 351.054688 134.160156 351.816406 134.160156 L 376.777344 134.160156 C 377.539062 134.160156 378.160156 134.777344 378.160156 135.539062 C 378.160156 136.300781 377.539062 136.921875 376.777344 136.921875 " fill-opacity="1" fill-rule="nonzero"/><path fill="#ffffff" d="M 376.777344 144.433594 L 351.816406 144.433594 C 351.054688 144.433594 350.441406 143.8125 350.441406 143.046875 C 350.441406 142.285156 351.054688 141.667969 351.816406 141.667969 L 376.777344 141.667969 C 377.539062 141.667969 378.160156 142.285156 378.160156 143.046875 C 378.160156 143.8125 377.539062 144.433594 376.777344 144.433594 " fill-opacity="1" fill-rule="nonzero"/><path fill="#ffc4b5" d="M 184.652344 305.535156 C 182.40625 303.058594 140.421875 255.578125 133.234375 243.445312 C 132.105469 241.53125 121.503906 250.671875 123.246094 253.648438 C 134.605469 273.105469 145.171875 363.09375 194.914062 359.378906 C 213.363281 358.003906 232.894531 333.671875 234.085938 325.605469 C 236.800781 307.242188 190.515625 295.476562 184.652344 305.535156 " fill-opacity="1" fill-rule="nonzero"/><path fill="#1e389c" d="M 360.757812 358.726562 C 360.757812 361.46875 363.988281 372.117188 364.863281 375.902344 C 333.339844 373.585938 286.898438 418.117188 240.828125 414.003906 C 238.390625 389.390625 236.898438 349.699219 237.636719 338.941406 C 238.785156 325.390625 219.5 208.722656 221.503906 205.128906 C 229.660156 190.519531 273.398438 169.414062 282.914062 165.28125 C 295.007812 160.027344 320.230469 159.160156 332.703125 164.113281 C 351.542969 171.597656 385.714844 186.28125 396.992188 197.617188 C 407.0625 207.742188 360.757812 357.304688 360.757812 358.726562 " fill-opacity="1" fill-rule="nonzero"/><path fill="#070256" d="M 364.863281 375.902344 C 361.691406 409.796875 352.882812 459.167969 347.449219 493.40625 L 253.589844 493.40625 C 250.019531 474.152344 244.40625 450.152344 240.828125 414.003906 C 286.898438 418.117188 333.339844 373.585938 364.863281 375.902344 " fill-opacity="1" fill-rule="nonzero"/><path fill="#fffffc" d="M 287.59375 156.410156 C 288.972656 155.398438 321.230469 151.144531 325.335938 152.503906 C 325.863281 152.675781 332.886719 163.324219 332.703125 164.113281 C 329.453125 178.09375 290.847656 226.230469 284.484375 226.347656 C 282.644531 226.386719 280.890625 201.691406 280.710938 188.777344 C 280.695312 187.765625 278.660156 191.84375 277.894531 191.414062 C 276.449219 190.609375 279.414062 176.839844 280.921875 170.71875 C 281.851562 166.96875 286.613281 157.132812 287.59375 156.410156 " fill-opacity="1" fill-rule="nonzero"/><path fill="#1e389c" d="M 396.992188 197.617188 C 408.109375 208.953125 454.273438 281.179688 456.96875 302.703125 C 457.671875 308.335938 409.96875 327.265625 406.273438 318.207031 C 405.242188 315.6875 379.417969 274.085938 361.523438 245.507812 C 341.71875 213.875 371.507812 171.628906 396.992188 197.617188 " fill-opacity="1" fill-rule="nonzero"/><path fill="#1e389c" d="M 234.441406 331.957031 C 236.316406 319.515625 247.773438 293.148438 254.898438 256.257812 C 263.164062 213.472656 231.382812 188.15625 221.503906 205.128906 C 209.515625 225.734375 189.101562 292.488281 184.652344 305.535156 C 201.203125 308.695312 233.402344 338.871094 234.441406 331.957031 " fill-opacity="1" fill-rule="nonzero"/><path fill="#8abaff" d="M 235.632812 370.480469 C 235.585938 370.480469 235.535156 370.476562 235.480469 370.46875 C 235.070312 370.382812 234.804688 369.980469 234.890625 369.574219 C 239.707031 346.21875 235.011719 305.785156 231.234375 273.304688 C 228.828125 252.605469 226.753906 234.722656 227.972656 227.371094 C 228.042969 226.960938 228.433594 226.679688 228.84375 226.746094 C 229.257812 226.816406 229.539062 227.203125 229.46875 227.617188 C 228.28125 234.761719 230.351562 252.542969 232.738281 273.128906 C 236.53125 305.722656 241.246094 346.285156 236.375 369.882812 C 236.300781 370.238281 235.988281 370.480469 235.632812 370.480469 " fill-opacity="1" fill-rule="nonzero"/><path fill="#8abaff" d="M 383.835938 284.554688 C 383.539062 284.554688 383.253906 284.378906 383.136719 284.078125 C 381.164062 279.21875 376.683594 272.046875 372.730469 265.71875 C 369.480469 260.519531 366.671875 256.027344 365.554688 253.355469 C 365.386719 252.972656 365.570312 252.527344 365.953125 252.367188 C 366.34375 252.207031 366.789062 252.382812 366.949219 252.769531 C 368.027344 255.328125 370.933594 259.984375 374.015625 264.921875 C 377.996094 271.300781 382.519531 278.527344 384.542969 283.511719 C 384.699219 283.898438 384.511719 284.339844 384.125 284.496094 C 384.03125 284.535156 383.9375 284.554688 383.835938 284.554688 " fill-opacity="1" fill-rule="nonzero"/><path fill="#8abaff" d="M 349.929688 431.765625 C 349.800781 431.765625 349.667969 431.726562 349.542969 431.65625 C 327.8125 418.613281 327.90625 403.140625 327.988281 390.703125 C 327.992188 389.796875 328.003906 388.902344 327.996094 388.019531 C 327.996094 387.601562 328.332031 387.261719 328.753906 387.261719 C 329.167969 387.261719 329.511719 387.597656 329.511719 388.015625 C 329.515625 388.902344 329.511719 389.800781 329.503906 390.714844 C 329.421875 403.390625 329.332031 417.757812 350.324219 430.355469 C 350.683594 430.566406 350.796875 431.035156 350.582031 431.394531 C 350.441406 431.632812 350.191406 431.765625 349.929688 431.765625 " fill-opacity="1" fill-rule="nonzero"/><path fill="#1e389c" d="M 303.960938 193.96875 Z M 304.019531 195.570312 C 303.941406 195.570312 303.863281 195.558594 303.789062 195.539062 C 303.105469 195.378906 302.355469 194.394531 296.589844 185.0625 C 294.734375 182.058594 292.492188 178.4375 291.546875 177.132812 C 289.601562 179.210938 282.703125 188.011719 278.394531 193.609375 C 278.125 193.960938 277.617188 194.027344 277.265625 193.757812 C 276.914062 193.484375 276.847656 192.984375 277.117188 192.628906 C 277.15625 192.589844 280.449219 188.300781 283.789062 184.074219 C 290.78125 175.21875 291.074219 175.21875 291.609375 175.21875 C 292.289062 175.21875 292.394531 175.21875 297.953125 184.214844 C 300.207031 187.855469 303.226562 192.746094 304.1875 193.875 C 305.277344 193.324219 308.621094 190.582031 312.445312 187.4375 C 316.523438 184.09375 321.601562 179.929688 327.527344 175.382812 C 327.882812 175.113281 328.386719 175.179688 328.65625 175.53125 C 328.925781 175.886719 328.859375 176.386719 328.507812 176.660156 C 322.597656 181.1875 317.535156 185.339844 313.46875 188.679688 C 306.695312 194.234375 304.988281 195.570312 304.019531 195.570312 " fill-opacity="1" fill-rule="nonzero"/><path fill="#ffc4b5" d="M 329.003906 400.488281 C 333.835938 394.601562 337.746094 392.410156 339.164062 391.097656 C 341.019531 389.378906 356.027344 399.296875 355.070312 400.582031 C 354.253906 401.691406 353.535156 416.753906 344.128906 426.632812 C 333.921875 421.097656 328.355469 406.296875 329.003906 400.488281 " fill-opacity="1" fill-rule="nonzero"/><path fill="#ffc4b5" d="M 339.164062 391.097656 C 364.863281 374.703125 387.363281 325.140625 404.519531 311.75 C 411.097656 306.609375 443.542969 295.207031 453.011719 297.582031 C 456.914062 298.566406 461.980469 314.695312 454.894531 328.605469 C 436.746094 364.25 357.042969 397.511719 355.070312 400.582031 C 353.105469 403.65625 339.59375 396.429688 339.164062 391.097656 " fill-opacity="1" fill-rule="nonzero"/><path fill="#070256" d="M 332.199219 120.402344 C 323.21875 133.019531 330.101562 138.546875 328.644531 141.515625 C 327.914062 143.015625 324.621094 142.800781 323.050781 141.472656 C 319.582031 138.527344 318.117188 129.402344 318.117188 129.402344 L 322.746094 122.058594 L 332.199219 120.402344 " fill-opacity="1" fill-rule="nonzero"/><path fill="#ffc4b5" d="M 286.085938 165.011719 C 286.019531 161.285156 291.839844 135.339844 292.644531 131.753906 L 292.730469 131.714844 L 325.769531 113.628906 C 325.769531 113.628906 322.605469 137.894531 324.589844 154.792969 C 324.796875 156.566406 295.324219 175.351562 292.109375 174.160156 C 290.230469 173.464844 286.109375 166.40625 286.085938 165.011719 " fill-opacity="1" fill-rule="nonzero"/><path fill="#ffc4b5" d="M 321.199219 135.152344 C 310.097656 162 270.917969 168.070312 267.617188 138.972656 C 266.5625 129.683594 268.769531 119.730469 271.425781 109.574219 C 272.605469 105.078125 276.039062 87.046875 277.976562 85.804688 C 280.824219 83.96875 299.511719 76.953125 303.964844 77.328125 C 308.640625 77.71875 326.078125 92.855469 326.820312 93.976562 C 327.355469 94.789062 323.996094 128.40625 321.199219 135.152344 " fill-opacity="1" fill-rule="nonzero"/><path fill="#071666" d="M 341.332031 94.773438 C 343.175781 86.269531 338.605469 78.078125 332.199219 77.265625 C 334.066406 71.601562 331.054688 63.972656 327.433594 61.550781 C 315.898438 53.820312 305.121094 61.332031 298.527344 62.058594 C 294.480469 62.503906 291.785156 59.449219 289.03125 61.332031 C 287.925781 62.089844 287.769531 64.183594 288.320312 65.085938 C 284.464844 65.136719 277.992188 57.550781 270.769531 60.484375 C 264.582031 63 262.261719 75.5625 277.453125 85.722656 C 275.40625 88.007812 269.582031 92.058594 268.523438 95.472656 C 266.875 100.742188 269.605469 108.449219 271.425781 109.574219 C 272.3125 106.007812 276.277344 94.261719 278.019531 86.046875 C 286.035156 90.929688 298.792969 91.027344 313.675781 88.226562 C 314.535156 88.835938 310.328125 93.425781 310.582031 97.601562 C 311.140625 106.632812 319.421875 112.183594 318.539062 120.929688 C 319.824219 121.539062 322.523438 119.179688 323.085938 117.875 C 323.921875 115.941406 330.902344 125.382812 331.449219 123.292969 C 334.328125 112.382812 338.527344 107.671875 341.332031 94.773438 " fill-opacity="1" fill-rule="nonzero"/><path fill="#ffc4b5" d="M 334.328125 112.382812 C 338.753906 116.914062 326.875 135.460938 322.195312 125.84375 C 318.253906 117.742188 328.941406 106.875 334.328125 112.382812 " fill-opacity="1" fill-rule="nonzero"/><path fill="#f26979" d="M 325.160156 120.800781 C 325.117188 120.800781 325.074219 120.796875 325.03125 120.789062 C 324.707031 120.722656 324.503906 120.402344 324.570312 120.074219 C 324.957031 118.304688 326.351562 116.628906 328.507812 115.351562 C 330.285156 114.296875 332.363281 113.671875 333.230469 113.925781 C 333.554688 114.023438 333.738281 114.359375 333.644531 114.679688 C 333.546875 114.996094 333.210938 115.175781 332.890625 115.085938 C 332.535156 114.976562 330.882812 115.347656 329.121094 116.386719 C 328.042969 117.023438 326.171875 118.390625 325.746094 120.328125 C 325.683594 120.613281 325.4375 120.800781 325.160156 120.800781 " fill-opacity="1" fill-rule="nonzero"/><path fill="#f26979" d="M 329.988281 121 C 329.726562 121 329.488281 120.832031 329.410156 120.570312 C 328.996094 119.175781 327.527344 118.546875 326.664062 118.550781 C 326.660156 118.550781 326.660156 118.550781 326.65625 118.550781 C 326.328125 118.550781 326.058594 118.285156 326.054688 117.957031 C 326.050781 117.625 326.3125 117.351562 326.648438 117.347656 C 326.660156 117.347656 326.671875 117.347656 326.6875 117.347656 C 328.183594 117.347656 330.027344 118.414062 330.566406 120.230469 C 330.660156 120.546875 330.476562 120.882812 330.15625 120.976562 C 330.101562 120.992188 330.042969 121 329.988281 121 " fill-opacity="1" fill-rule="nonzero"/><path fill="#28003b" d="M 287.742188 117.851562 C 287.410156 117.851562 287.140625 117.578125 287.140625 117.246094 C 287.144531 115.464844 285.878906 114.394531 284.621094 114.257812 C 283.542969 114.144531 282.238281 114.730469 281.816406 116.71875 C 281.75 117.046875 281.429688 117.257812 281.101562 117.183594 C 280.777344 117.113281 280.570312 116.796875 280.640625 116.472656 C 281.226562 113.695312 283.210938 112.898438 284.742188 113.0625 C 286.5 113.246094 288.351562 114.777344 288.347656 117.25 C 288.347656 117.582031 288.074219 117.851562 287.742188 117.851562 " fill-opacity="1" fill-rule="nonzero"/><path fill="#28003b" d="M 308.238281 121.289062 C 307.996094 121.289062 307.769531 121.144531 307.675781 120.902344 C 307.558594 120.59375 307.714844 120.246094 308.027344 120.125 L 323.257812 114.324219 C 323.570312 114.207031 323.917969 114.363281 324.035156 114.675781 C 324.152344 114.988281 323.996094 115.332031 323.691406 115.449219 L 308.457031 121.25 C 308.386719 121.28125 308.3125 121.289062 308.238281 121.289062 " fill-opacity="1" fill-rule="nonzero"/><path fill="#28003b" d="M 278.488281 122.96875 C 278.898438 123.054688 279.3125 122.789062 279.398438 122.371094 L 282.21875 108.976562 C 282.261719 108.777344 282.222656 108.570312 282.109375 108.398438 C 281.996094 108.230469 281.828125 108.113281 281.628906 108.070312 L 269.363281 105.484375 C 268.953125 105.398438 268.539062 105.664062 268.457031 106.078125 L 265.632812 119.472656 C 265.589844 119.671875 265.628906 119.878906 265.742188 120.050781 C 265.855469 120.226562 266.023438 120.339844 266.222656 120.382812 Z M 278.644531 124.1875 C 278.511719 124.1875 278.375 124.171875 278.238281 124.144531 L 265.976562 121.558594 C 265.460938 121.453125 265.019531 121.152344 264.734375 120.707031 C 264.445312 120.269531 264.347656 119.742188 264.457031 119.226562 L 267.277344 105.828125 C 267.5 104.765625 268.550781 104.082031 269.613281 104.304688 L 281.875 106.886719 C 282.390625 106.996094 282.832031 107.296875 283.117188 107.742188 C 283.40625 108.183594 283.503906 108.710938 283.398438 109.226562 L 280.574219 122.621094 C 280.378906 123.550781 279.558594 124.1875 278.644531 124.1875 " fill-opacity="1" fill-rule="nonzero"/><path fill="#28003b" d="M 290.515625 109.960938 C 290.367188 109.960938 290.222656 110.003906 290.097656 110.082031 C 289.925781 110.195312 289.808594 110.367188 289.765625 110.566406 L 286.941406 123.964844 C 286.859375 124.375 287.121094 124.785156 287.539062 124.875 L 304.949219 128.542969 C 305.152344 128.585938 305.355469 128.546875 305.523438 128.433594 C 305.695312 128.320312 305.8125 128.148438 305.855469 127.953125 L 308.679688 114.550781 C 308.71875 114.351562 308.683594 114.144531 308.570312 113.976562 C 308.460938 113.804688 308.285156 113.6875 308.085938 113.644531 L 290.671875 109.976562 C 290.621094 109.964844 290.570312 109.960938 290.515625 109.960938 Z M 305.109375 129.761719 C 304.972656 129.761719 304.835938 129.746094 304.695312 129.71875 L 287.289062 126.050781 C 286.222656 125.828125 285.539062 124.777344 285.765625 123.714844 L 288.589844 110.320312 C 288.695312 109.804688 289 109.359375 289.4375 109.078125 C 289.878906 108.789062 290.410156 108.6875 290.921875 108.796875 L 308.332031 112.464844 C 308.847656 112.574219 309.292969 112.878906 309.582031 113.316406 C 309.871094 113.761719 309.964844 114.285156 309.855469 114.800781 L 307.03125 128.195312 C 306.925781 128.710938 306.621094 129.15625 306.179688 129.445312 C 305.855469 129.652344 305.488281 129.761719 305.109375 129.761719 " fill-opacity="1" fill-rule="nonzero"/><path fill="#ffffff" d="M 303.121094 123.796875 C 302.964844 123.796875 302.804688 123.753906 302.664062 123.652344 C 302.300781 123.402344 302.210938 122.902344 302.460938 122.539062 C 302.804688 122.042969 303.09375 121.351562 303.320312 120.484375 C 303.429688 120.054688 303.871094 119.800781 304.300781 119.914062 C 304.730469 120.023438 304.984375 120.460938 304.871094 120.890625 C 304.597656 121.941406 304.234375 122.796875 303.785156 123.449219 C 303.628906 123.675781 303.378906 123.796875 303.121094 123.796875 " fill-opacity="1" fill-rule="nonzero"/><path fill="#ffffff" d="M 304.523438 119.042969 C 304.492188 119.042969 304.464844 119.039062 304.441406 119.039062 C 303.996094 118.992188 303.679688 118.597656 303.722656 118.15625 C 303.828125 117.183594 303.828125 116.464844 303.828125 116.460938 C 303.828125 116.015625 304.1875 115.65625 304.628906 115.65625 C 305.070312 115.65625 305.433594 116.015625 305.433594 116.460938 C 305.433594 116.496094 305.429688 117.261719 305.320312 118.320312 C 305.277344 118.734375 304.929688 119.042969 304.523438 119.042969 " fill-opacity="1" fill-rule="nonzero"/><path fill="#ffffff" d="M 280.214844 113.832031 C 279.742188 115.898438 277.445312 117.273438 275.085938 116.90625 C 272.730469 116.539062 271.203125 114.566406 271.675781 112.5 C 272.152344 110.433594 274.449219 109.058594 276.808594 109.425781 C 279.164062 109.796875 280.691406 111.765625 280.214844 113.832031 " fill-opacity="1" fill-rule="nonzero"/><path fill="#04153d" d="M 279.128906 113.640625 C 278.78125 115.324219 277.617188 116.550781 276.53125 116.382812 C 275.4375 116.214844 274.832031 114.710938 275.179688 113.027344 C 275.523438 111.347656 276.691406 110.117188 277.78125 110.285156 C 278.871094 110.453125 279.476562 111.957031 279.128906 113.640625 " fill-opacity="1" fill-rule="nonzero"/><path fill="#ffffff" d="M 277.46875 114.613281 C 277.296875 115.222656 276.804688 115.644531 276.367188 115.550781 C 275.929688 115.460938 275.71875 114.886719 275.886719 114.277344 C 276.058594 113.667969 276.550781 113.246094 276.988281 113.339844 C 277.425781 113.429688 277.636719 114.003906 277.46875 114.613281 " fill-opacity="1" fill-rule="nonzero"/><path fill="#ffffff" d="M 301.847656 116.867188 C 301.140625 119.152344 298.3125 120.539062 295.527344 119.960938 C 292.746094 119.382812 291.054688 117.066406 291.761719 114.785156 C 292.46875 112.5 295.296875 111.117188 298.082031 111.695312 C 300.867188 112.269531 302.554688 114.589844 301.847656 116.867188 " fill-opacity="1" fill-rule="nonzero"/><path fill="#04153d" d="M 299.863281 116.324219 C 299.382812 118.050781 297.988281 119.238281 296.757812 118.976562 C 295.523438 118.71875 294.917969 117.109375 295.402344 115.386719 C 295.882812 113.664062 297.277344 112.476562 298.507812 112.730469 C 299.742188 112.992188 300.347656 114.597656 299.863281 116.324219 " fill-opacity="1" fill-rule="nonzero"/><path fill="#ffffff" d="M 297.773438 116.925781 C 297.601562 117.535156 297.109375 117.957031 296.671875 117.867188 C 296.238281 117.773438 296.019531 117.203125 296.191406 116.59375 C 296.367188 115.984375 296.859375 115.5625 297.292969 115.65625 C 297.726562 115.746094 297.945312 116.316406 297.773438 116.925781 " fill-opacity="1" fill-rule="nonzero"/><path fill="#04153d" d="M 295.3125 102.777344 C 295.3125 102.777344 295.363281 102.695312 295.457031 102.550781 C 295.480469 102.515625 295.5 102.476562 295.539062 102.433594 C 295.585938 102.386719 295.636719 102.335938 295.699219 102.285156 C 295.761719 102.234375 295.828125 102.179688 295.894531 102.121094 C 295.964844 102.078125 296.035156 102.039062 296.117188 102 C 296.265625 101.902344 296.441406 101.84375 296.636719 101.785156 C 296.824219 101.730469 297.027344 101.714844 297.234375 101.679688 C 297.4375 101.679688 297.65625 101.664062 297.863281 101.691406 C 298.078125 101.699219 298.289062 101.742188 298.492188 101.785156 C 298.703125 101.824219 298.898438 101.890625 299.097656 101.949219 C 299.289062 102.03125 299.480469 102.089844 299.652344 102.183594 C 300 102.34375 300.308594 102.542969 300.554688 102.734375 C 300.800781 102.925781 300.988281 103.125 301.113281 103.269531 C 301.230469 103.429688 301.289062 103.53125 301.289062 103.53125 C 301.367188 103.675781 301.316406 103.859375 301.167969 103.945312 C 301.085938 104 300.980469 104 300.894531 103.960938 L 300.839844 103.933594 C 300.839844 103.933594 300.757812 103.894531 300.636719 103.828125 C 300.566406 103.800781 300.480469 103.757812 300.390625 103.710938 C 300.289062 103.671875 300.175781 103.625 300.054688 103.574219 C 299.925781 103.527344 299.804688 103.460938 299.65625 103.414062 C 299.511719 103.359375 299.363281 103.296875 299.207031 103.246094 C 299.050781 103.191406 298.886719 103.148438 298.726562 103.085938 C 298.558594 103.046875 298.394531 102.988281 298.230469 102.949219 C 298.058594 102.90625 297.894531 102.878906 297.726562 102.847656 C 297.566406 102.8125 297.410156 102.816406 297.253906 102.792969 C 297.113281 102.796875 296.957031 102.777344 296.828125 102.796875 C 296.703125 102.8125 296.570312 102.816406 296.464844 102.855469 C 296.414062 102.863281 296.359375 102.878906 296.308594 102.886719 C 296.265625 102.90625 296.230469 102.921875 296.195312 102.933594 C 296.15625 102.949219 296.121094 102.957031 296.082031 102.96875 C 296.042969 102.988281 296 103.023438 295.96875 103.042969 C 295.828125 103.144531 295.746094 103.195312 295.746094 103.195312 C 295.605469 103.292969 295.414062 103.257812 295.320312 103.113281 C 295.25 103.011719 295.25 102.878906 295.3125 102.777344 " fill-opacity="1" fill-rule="nonzero"/><path fill="#04153d" d="M 274.4375 100.832031 C 274.4375 100.832031 274.484375 100.769531 274.574219 100.667969 C 274.625 100.617188 274.648438 100.5625 274.769531 100.496094 C 274.863281 100.429688 274.988281 100.347656 275.121094 100.296875 C 275.25 100.25 275.402344 100.183594 275.5625 100.167969 C 275.640625 100.160156 275.726562 100.148438 275.8125 100.140625 C 275.898438 100.136719 275.988281 100.144531 276.074219 100.148438 C 276.253906 100.15625 276.417969 100.210938 276.597656 100.253906 C 276.757812 100.316406 276.933594 100.371094 277.078125 100.460938 C 277.234375 100.542969 277.371094 100.640625 277.511719 100.734375 C 277.636719 100.839844 277.761719 100.949219 277.871094 101.058594 C 278.085938 101.273438 278.261719 101.503906 278.390625 101.710938 C 278.523438 101.917969 278.601562 102.113281 278.652344 102.25 C 278.703125 102.394531 278.71875 102.476562 278.71875 102.476562 C 278.753906 102.644531 278.648438 102.808594 278.484375 102.84375 C 278.378906 102.867188 278.28125 102.839844 278.210938 102.773438 L 278.179688 102.746094 C 278.179688 102.746094 278.128906 102.703125 278.042969 102.628906 C 277.960938 102.546875 277.832031 102.4375 277.675781 102.316406 C 277.523438 102.1875 277.339844 102.039062 277.140625 101.902344 C 276.949219 101.765625 276.730469 101.628906 276.515625 101.527344 C 276.414062 101.464844 276.308594 101.429688 276.203125 101.382812 C 276.105469 101.355469 276 101.304688 275.90625 101.289062 C 275.8125 101.261719 275.71875 101.246094 275.632812 101.238281 C 275.539062 101.214844 275.457031 101.238281 275.378906 101.222656 C 275.296875 101.222656 275.242188 101.238281 275.167969 101.234375 C 275.113281 101.222656 275.023438 101.269531 274.960938 101.285156 C 274.832031 101.324219 274.757812 101.335938 274.757812 101.335938 C 274.582031 101.375 274.414062 101.265625 274.378906 101.089844 C 274.355469 100.996094 274.382812 100.902344 274.4375 100.832031 " fill-opacity="1" fill-rule="nonzero"/><path fill="#ffc4b5" d="M 283.691406 114.886719 C 282.402344 116.195312 272.691406 128.730469 274.53125 130.546875 C 276.367188 132.359375 283.273438 131.417969 283.300781 128.15625 C 283.324219 124.890625 283.691406 114.886719 283.691406 114.886719 " fill-opacity="1" fill-rule="nonzero"/><path fill="#f26979" d="M 283 115.796875 C 283 115.796875 282.726562 116.105469 282.277344 116.6875 C 281.816406 117.261719 281.199219 118.101562 280.472656 119.132812 C 279.757812 120.164062 278.949219 121.386719 278.128906 122.726562 C 277.726562 123.402344 277.324219 124.105469 276.941406 124.835938 C 276.5625 125.5625 276.210938 126.316406 275.882812 127.066406 C 275.5625 127.824219 275.273438 128.597656 275.117188 129.324219 C 275.039062 129.683594 275.007812 130.046875 275.070312 130.257812 C 275.144531 130.496094 275.300781 130.746094 275.527344 130.914062 C 275.96875 131.28125 276.664062 131.421875 277.3125 131.460938 C 277.972656 131.488281 278.625 131.429688 279.222656 131.339844 C 280.421875 131.15625 281.414062 130.863281 282.101562 130.644531 C 282.785156 130.425781 283.167969 130.273438 283.167969 130.273438 C 283.324219 130.210938 283.5 130.285156 283.5625 130.441406 C 283.617188 130.585938 283.5625 130.746094 283.429688 130.816406 C 283.429688 130.816406 283.335938 130.875 283.160156 130.96875 C 282.980469 131.066406 282.71875 131.203125 282.378906 131.359375 C 282.039062 131.515625 281.613281 131.691406 281.117188 131.871094 C 280.621094 132.042969 280.054688 132.226562 279.410156 132.363281 C 278.773438 132.496094 278.058594 132.609375 277.273438 132.59375 C 276.503906 132.570312 275.59375 132.476562 274.78125 131.847656 C 274.382812 131.539062 274.0625 131.101562 273.902344 130.5625 C 273.773438 129.980469 273.863281 129.507812 273.96875 129.0625 C 274.191406 128.171875 274.570312 127.394531 274.972656 126.632812 C 275.371094 125.871094 275.816406 125.148438 276.269531 124.441406 C 276.714844 123.738281 277.164062 123.054688 277.613281 122.402344 C 278.492188 121.085938 279.359375 119.890625 280.105469 118.867188 C 280.859375 117.851562 281.5 117.019531 281.953125 116.4375 C 282.414062 115.855469 282.691406 115.535156 282.691406 115.535156 L 282.691406 115.53125 C 282.769531 115.449219 282.890625 115.441406 282.976562 115.511719 C 283.0625 115.582031 283.070312 115.710938 283 115.796875 " fill-opacity="1" fill-rule="nonzero"/><g clip-path="url(#bcd1c32710)"><g clip-path="url(#b7c9b849f9)"><path fill="#f26979" d="M 302.664062 139.964844 C 302.574219 130.1875 294.578125 122.339844 284.804688 122.425781 C 275.027344 122.515625 267.175781 130.507812 267.265625 140.285156 C 267.355469 150.058594 275.347656 157.914062 285.128906 157.824219 C 294.898438 157.738281 302.753906 149.738281 302.664062 139.964844 " fill-opacity="1" fill-rule="nonzero"/></g></g><g clip-path="url(#bf18b9e064)"><g clip-path="url(#ebb279cb52)"><path fill="#ffffff" d="M 279.570312 139.472656 C 280.175781 140.089844 294.214844 141.742188 297.074219 135.15625 C 300.636719 126.957031 278.367188 134.632812 278.367188 134.632812 C 278.367188 134.632812 278.707031 138.582031 279.570312 139.472656 " fill-opacity="1" fill-rule="nonzero"/></g></g><path fill="#f26979" d="M 287.128906 158.046875 C 287.128906 158.046875 287.257812 158.046875 287.515625 158.046875 C 287.765625 158.042969 288.152344 158.070312 288.605469 158.042969 C 289.066406 158.011719 289.617188 158.007812 290.265625 157.933594 C 290.589844 157.898438 290.933594 157.871094 291.296875 157.824219 C 291.65625 157.773438 292.035156 157.714844 292.433594 157.660156 C 292.828125 157.605469 293.242188 157.511719 293.660156 157.429688 C 294.085938 157.339844 294.527344 157.269531 294.972656 157.148438 C 295.421875 157.035156 295.878906 156.921875 296.347656 156.800781 C 296.808594 156.671875 297.277344 156.515625 297.761719 156.367188 C 297.996094 156.292969 298.242188 156.226562 298.484375 156.140625 C 298.726562 156.050781 298.964844 155.960938 299.207031 155.871094 C 299.691406 155.683594 300.191406 155.527344 300.671875 155.308594 C 301.15625 155.09375 301.640625 154.882812 302.132812 154.671875 C 302.628906 154.46875 303.09375 154.191406 303.578125 153.957031 C 304.546875 153.492188 305.453125 152.910156 306.359375 152.378906 C 306.824219 152.113281 307.234375 151.789062 307.671875 151.503906 C 308.089844 151.203125 308.53125 150.929688 308.925781 150.617188 C 309.320312 150.300781 309.703125 149.992188 310.085938 149.691406 C 310.464844 149.390625 310.84375 149.101562 311.175781 148.773438 C 311.515625 148.460938 311.847656 148.15625 312.167969 147.863281 C 312.484375 147.5625 312.804688 147.289062 313.070312 146.980469 C 313.625 146.394531 314.128906 145.851562 314.578125 145.371094 C 315.015625 144.882812 315.355469 144.417969 315.65625 144.054688 C 316.246094 143.316406 316.589844 142.898438 316.589844 142.898438 L 316.597656 142.886719 C 316.664062 142.796875 316.792969 142.785156 316.875 142.855469 C 316.960938 142.925781 316.976562 143.046875 316.910156 143.132812 C 316.910156 143.132812 316.578125 143.570312 316.003906 144.324219 C 315.703125 144.699219 315.367188 145.175781 314.9375 145.683594 C 314.492188 146.179688 313.996094 146.734375 313.449219 147.351562 C 313.1875 147.664062 312.867188 147.953125 312.554688 148.257812 C 312.234375 148.566406 311.90625 148.882812 311.566406 149.210938 C 311.242188 149.550781 310.863281 149.851562 310.484375 150.167969 C 310.105469 150.484375 309.71875 150.808594 309.324219 151.136719 C 308.929688 151.464844 308.492188 151.753906 308.066406 152.070312 C 307.632812 152.367188 307.21875 152.707031 306.757812 152.988281 C 305.839844 153.558594 304.929688 154.167969 303.949219 154.664062 C 303.464844 154.921875 302.996094 155.210938 302.492188 155.425781 C 302 155.660156 301.503906 155.890625 301.019531 156.117188 C 300.527344 156.347656 300.019531 156.523438 299.527344 156.726562 C 299.28125 156.820312 299.042969 156.921875 298.796875 157.015625 C 298.550781 157.109375 298.304688 157.183594 298.058594 157.269531 C 297.570312 157.429688 297.09375 157.601562 296.621094 157.75 C 296.144531 157.878906 295.675781 158.007812 295.21875 158.136719 C 294.769531 158.273438 294.3125 158.359375 293.878906 158.457031 C 293.445312 158.550781 293.027344 158.660156 292.617188 158.722656 C 292.210938 158.789062 291.820312 158.859375 291.449219 158.921875 C 291.074219 158.976562 290.71875 159.015625 290.386719 159.058594 C 289.722656 159.152344 289.117188 159.171875 288.628906 159.210938 C 288.132812 159.25 287.773438 159.234375 287.519531 159.242188 C 287.265625 159.246094 287.128906 159.246094 287.128906 159.246094 C 286.796875 159.25 286.523438 158.988281 286.515625 158.65625 C 286.511719 158.320312 286.777344 158.050781 287.109375 158.046875 C 287.113281 158.046875 287.121094 158.046875 287.128906 158.046875 " fill-opacity="1" fill-rule="nonzero"/><path fill="#ffc4b5" d="M 132.441406 225.265625 C 134.652344 231.335938 134.308594 245.933594 130.9375 249.46875 C 129.292969 251.195312 117.824219 225.367188 121.394531 224.027344 C 122.460938 223.628906 116.351562 216.582031 115.769531 211.546875 C 115.371094 208.148438 116.566406 205.546875 118.316406 205.269531 C 119.429688 205.097656 120.082031 209.414062 121.394531 212.214844 C 122.976562 215.578125 130.671875 220.414062 132.441406 225.265625 " fill-opacity="1" fill-rule="nonzero"/><path fill="#ffc4b5" d="M 128.042969 224.214844 C 124.980469 226.445312 112.8125 220.210938 99.925781 215.484375 C 90.417969 211.996094 82.882812 207.039062 80.421875 207.054688 C 78.800781 207.066406 77.449219 210.023438 79.023438 213.539062 C 83.933594 224.5 100.898438 245.847656 115.65625 251.800781 C 141.839844 262.363281 128.042969 224.214844 128.042969 224.214844 " fill-opacity="1" fill-rule="nonzero"/><path fill="#f26979" d="M 111.433594 221.445312 C 111.433594 221.445312 111.167969 221.53125 110.707031 221.664062 C 110.648438 221.675781 110.585938 221.695312 110.519531 221.714844 C 110.46875 221.738281 110.40625 221.761719 110.351562 221.792969 C 110.226562 221.84375 110.101562 221.894531 109.957031 221.953125 C 109.683594 222.046875 109.367188 222.246094 109.023438 222.410156 C 108.847656 222.484375 108.679688 222.609375 108.5 222.714844 C 108.320312 222.828125 108.132812 222.925781 107.949219 223.054688 C 107.578125 223.3125 107.1875 223.570312 106.800781 223.875 C 106.605469 224.03125 106.398438 224.175781 106.203125 224.339844 C 106.011719 224.503906 105.816406 224.675781 105.613281 224.835938 C 105.214844 225.175781 104.820312 225.53125 104.4375 225.894531 C 104.046875 226.265625 103.65625 226.628906 103.285156 227.007812 C 102.917969 227.382812 102.550781 227.753906 102.195312 228.113281 C 101.847656 228.480469 101.511719 228.835938 101.195312 229.175781 C 100.878906 229.515625 100.578125 229.839844 100.304688 230.136719 C 99.75 230.742188 99.285156 231.242188 98.964844 231.59375 C 98.640625 231.941406 98.445312 232.140625 98.445312 232.140625 L 98.441406 232.144531 C 98.265625 232.320312 97.980469 232.320312 97.808594 232.152344 C 97.660156 232.003906 97.636719 231.785156 97.730469 231.617188 C 97.730469 231.617188 97.863281 231.371094 98.113281 230.953125 C 98.363281 230.539062 98.730469 229.941406 99.214844 229.261719 C 99.6875 228.574219 100.285156 227.800781 100.957031 226.996094 C 101.304688 226.605469 101.644531 226.183594 102.039062 225.792969 C 102.417969 225.390625 102.820312 224.992188 103.226562 224.605469 C 103.644531 224.222656 104.070312 223.851562 104.507812 223.496094 C 104.941406 223.148438 105.386719 222.820312 105.835938 222.523438 C 106.269531 222.210938 106.742188 221.972656 107.167969 221.726562 C 107.613281 221.503906 108.039062 221.292969 108.449219 221.144531 C 108.871094 221 109.226562 220.855469 109.605469 220.789062 C 109.789062 220.746094 109.957031 220.707031 110.113281 220.679688 C 110.191406 220.660156 110.265625 220.648438 110.335938 220.632812 C 110.402344 220.628906 110.46875 220.625 110.527344 220.617188 C 111.007812 220.585938 111.285156 220.574219 111.285156 220.574219 C 111.53125 220.566406 111.742188 220.753906 111.75 221 C 111.757812 221.210938 111.621094 221.390625 111.433594 221.445312 " fill-opacity="1" fill-rule="nonzero"/><path fill="#f26979" d="M 121.832031 224.109375 C 121.832031 224.109375 121.824219 224.167969 121.820312 224.277344 C 121.816406 224.390625 121.816406 224.558594 121.792969 224.769531 C 121.746094 225 121.6875 225.304688 121.597656 225.613281 C 121.503906 225.898438 121.40625 226.25 121.257812 226.585938 C 121.121094 226.933594 120.976562 227.304688 120.800781 227.675781 C 120.628906 228.050781 120.449219 228.4375 120.261719 228.851562 C 120.082031 229.246094 119.898438 229.664062 119.722656 230.078125 C 119.527344 230.492188 119.386719 230.917969 119.226562 231.34375 C 119.101562 231.765625 118.925781 232.1875 118.851562 232.609375 C 118.808594 232.820312 118.746094 233.03125 118.714844 233.238281 C 118.679688 233.445312 118.652344 233.648438 118.625 233.851562 C 118.582031 234.054688 118.589844 234.253906 118.582031 234.449219 C 118.574219 234.640625 118.5625 234.835938 118.554688 235.023438 C 118.585938 235.394531 118.601562 235.75 118.628906 236.078125 C 118.699219 236.402344 118.753906 236.699219 118.800781 236.972656 C 118.847656 237.242188 118.941406 237.464844 118.988281 237.660156 C 119.101562 238.042969 119.160156 238.269531 119.160156 238.269531 L 119.171875 238.324219 C 119.234375 238.566406 119.089844 238.808594 118.851562 238.863281 C 118.664062 238.910156 118.46875 238.832031 118.371094 238.675781 C 118.371094 238.675781 118.238281 238.460938 118.011719 238.078125 C 117.910156 237.886719 117.746094 237.660156 117.636719 237.367188 C 117.523438 237.078125 117.394531 236.742188 117.261719 236.378906 C 117.167969 236 117.089844 235.582031 117.007812 235.140625 C 116.988281 234.691406 116.917969 234.210938 116.960938 233.726562 C 116.980469 233.480469 117 233.230469 117.023438 232.976562 C 117.039062 232.726562 117.105469 232.484375 117.15625 232.230469 C 117.238281 231.726562 117.410156 231.246094 117.554688 230.753906 C 117.746094 230.289062 117.914062 229.808594 118.132812 229.371094 C 118.332031 228.921875 118.566406 228.503906 118.78125 228.101562 C 118.992188 227.703125 119.226562 227.324219 119.429688 226.96875 C 119.636719 226.625 119.824219 226.292969 120.003906 225.988281 C 120.191406 225.6875 120.324219 225.414062 120.464844 225.171875 C 120.574219 224.941406 120.671875 224.742188 120.753906 224.582031 C 120.886719 224.179688 120.960938 223.953125 120.960938 223.953125 L 120.960938 223.945312 C 121.035156 223.710938 121.292969 223.582031 121.523438 223.664062 C 121.71875 223.726562 121.839844 223.914062 121.832031 224.109375 " fill-opacity="1" fill-rule="nonzero"/><path fill="#f26979" d="M 80.691406 215.148438 C 80.691406 215.148438 80.78125 215.121094 80.949219 215.0625 C 81.035156 215.035156 81.128906 214.992188 81.308594 214.976562 C 81.464844 214.964844 81.6875 214.917969 81.871094 214.941406 C 82.261719 214.953125 82.734375 215.019531 83.210938 215.195312 C 83.707031 215.351562 84.207031 215.605469 84.738281 215.90625 C 85.257812 216.210938 85.800781 216.566406 86.335938 216.976562 C 86.875 217.382812 87.417969 217.832031 87.960938 218.320312 C 88.507812 218.804688 89.058594 219.304688 89.597656 219.839844 C 90.132812 220.367188 90.675781 220.90625 91.21875 221.449219 C 92.273438 222.539062 93.328125 223.628906 94.316406 224.652344 C 94.8125 225.152344 95.292969 225.636719 95.75 226.085938 C 96.214844 226.527344 96.652344 226.945312 97.0625 227.308594 C 97.902344 228.035156 98.628906 228.566406 99.167969 228.875 C 99.300781 228.945312 99.421875 229.011719 99.527344 229.0625 C 99.632812 229.121094 99.726562 229.148438 99.796875 229.179688 C 99.949219 229.242188 100.027344 229.277344 100.027344 229.277344 L 100.085938 229.304688 C 100.3125 229.394531 100.417969 229.652344 100.320312 229.875 C 100.242188 230.074219 100.027344 230.183594 99.824219 230.140625 C 99.824219 230.140625 99.722656 230.117188 99.53125 230.074219 C 99.332031 230.042969 99.058594 229.960938 98.71875 229.839844 C 98.382812 229.703125 97.988281 229.527344 97.566406 229.285156 C 97.136719 229.042969 96.675781 228.75 96.199219 228.40625 C 95.957031 228.230469 95.71875 228.046875 95.460938 227.851562 C 95.21875 227.652344 94.96875 227.449219 94.710938 227.238281 C 94.199219 226.804688 93.675781 226.339844 93.148438 225.84375 C 92.625 225.347656 92.085938 224.835938 91.554688 224.300781 C 91.03125 223.765625 90.492188 223.226562 89.957031 222.683594 C 89.429688 222.144531 88.898438 221.601562 88.378906 221.074219 C 87.855469 220.542969 87.34375 220.023438 86.835938 219.539062 C 86.332031 219.058594 85.84375 218.585938 85.367188 218.179688 C 84.890625 217.757812 84.425781 217.390625 83.992188 217.074219 C 83.546875 216.773438 83.140625 216.496094 82.761719 216.332031 C 82.386719 216.140625 82.058594 216.046875 81.78125 215.996094 C 81.710938 215.976562 81.65625 215.972656 81.609375 215.972656 C 81.554688 215.964844 81.507812 215.960938 81.460938 215.957031 C 81.382812 215.929688 81.257812 215.957031 81.171875 215.972656 C 80.992188 215.996094 80.898438 216.007812 80.898438 216.007812 C 80.65625 216.046875 80.429688 215.882812 80.394531 215.640625 C 80.359375 215.421875 80.492188 215.21875 80.691406 215.148438 " fill-opacity="1" fill-rule="nonzero"/><path fill="#f26979" d="M 79.816406 211.558594 C 79.816406 211.558594 79.914062 211.527344 80.105469 211.464844 C 80.152344 211.449219 80.203125 211.433594 80.261719 211.414062 C 80.328125 211.398438 80.410156 211.390625 80.5 211.375 C 80.671875 211.355469 80.898438 211.316406 81.09375 211.34375 C 81.296875 211.351562 81.53125 211.351562 81.765625 211.398438 C 81.886719 211.421875 82.011719 211.441406 82.136719 211.464844 C 82.265625 211.492188 82.394531 211.53125 82.523438 211.5625 C 83.058594 211.703125 83.617188 211.921875 84.21875 212.1875 C 84.804688 212.46875 85.433594 212.785156 86.0625 213.15625 C 86.695312 213.53125 87.347656 213.9375 88 214.386719 C 88.65625 214.835938 89.324219 215.300781 89.988281 215.796875 C 90.644531 216.296875 91.308594 216.804688 91.976562 217.308594 C 92.628906 217.828125 93.285156 218.34375 93.925781 218.855469 C 94.5625 219.371094 95.191406 219.871094 95.796875 220.359375 C 97.011719 221.328125 98.140625 222.222656 99.128906 222.945312 C 99.628906 223.304688 100.085938 223.621094 100.496094 223.890625 C 100.910156 224.152344 101.277344 224.363281 101.578125 224.527344 C 101.886719 224.675781 102.128906 224.804688 102.292969 224.855469 C 102.464844 224.921875 102.550781 224.953125 102.550781 224.953125 L 102.601562 224.976562 C 102.828125 225.066406 102.941406 225.324219 102.851562 225.550781 C 102.769531 225.753906 102.558594 225.863281 102.351562 225.820312 C 102.351562 225.820312 102.242188 225.796875 102.035156 225.753906 C 101.816406 225.714844 101.527344 225.625 101.160156 225.503906 C 100.980469 225.433594 100.78125 225.355469 100.566406 225.269531 C 100.355469 225.179688 100.132812 225.066406 99.898438 224.960938 C 99.660156 224.839844 99.414062 224.707031 99.152344 224.570312 C 98.902344 224.425781 98.632812 224.273438 98.359375 224.113281 C 97.261719 223.457031 96.046875 222.617188 94.78125 221.683594 C 94.152344 221.214844 93.5 220.730469 92.851562 220.226562 C 92.203125 219.726562 91.546875 219.214844 90.890625 218.703125 C 90.238281 218.191406 89.585938 217.683594 88.941406 217.179688 C 88.292969 216.6875 87.664062 216.199219 87.046875 215.742188 C 86.421875 215.292969 85.824219 214.851562 85.242188 214.460938 C 84.664062 214.074219 84.109375 213.730469 83.589844 213.425781 C 83.0625 213.144531 82.582031 212.886719 82.148438 212.722656 C 82.039062 212.679688 81.929688 212.640625 81.824219 212.597656 C 81.726562 212.570312 81.628906 212.542969 81.53125 212.515625 C 81.34375 212.445312 81.171875 212.429688 81.011719 212.394531 C 80.847656 212.359375 80.746094 212.371094 80.640625 212.359375 C 80.582031 212.355469 80.535156 212.34375 80.488281 212.34375 C 80.425781 212.355469 80.375 212.363281 80.320312 212.371094 C 80.128906 212.402344 80.027344 212.414062 80.027344 212.414062 L 80.023438 212.417969 C 79.78125 212.453125 79.554688 212.292969 79.519531 212.046875 C 79.480469 211.828125 79.613281 211.621094 79.816406 211.558594 " fill-opacity="1" fill-rule="nonzero"/><path fill="#f26979" d="M 79.816406 208.449219 C 79.816406 208.449219 79.925781 208.414062 80.132812 208.347656 C 80.191406 208.335938 80.230469 208.3125 80.316406 208.296875 C 80.398438 208.289062 80.488281 208.277344 80.585938 208.265625 C 80.6875 208.25 80.789062 208.238281 80.902344 208.226562 C 81.003906 208.230469 81.113281 208.234375 81.226562 208.238281 C 81.457031 208.234375 81.699219 208.269531 81.957031 208.3125 C 82.226562 208.34375 82.492188 208.429688 82.789062 208.496094 C 83.363281 208.660156 83.996094 208.882812 84.648438 209.175781 C 85.304688 209.460938 85.992188 209.804688 86.703125 210.191406 C 87.414062 210.585938 88.152344 211.007812 88.894531 211.46875 C 90.386719 212.382812 91.929688 213.417969 93.460938 214.445312 C 94.222656 214.957031 94.988281 215.472656 95.742188 215.984375 C 96.492188 216.484375 97.230469 216.976562 97.949219 217.449219 C 98.671875 217.914062 99.363281 218.367188 100.035156 218.773438 C 100.699219 219.179688 101.332031 219.550781 101.929688 219.882812 C 102.527344 220.203125 103.074219 220.484375 103.570312 220.71875 C 103.816406 220.839844 104.050781 220.929688 104.269531 221.023438 C 104.488281 221.125 104.6875 221.203125 104.871094 221.265625 C 105.050781 221.332031 105.214844 221.394531 105.359375 221.445312 C 105.5 221.488281 105.621094 221.527344 105.722656 221.554688 C 105.921875 221.617188 106.023438 221.648438 106.023438 221.648438 L 106.0625 221.664062 C 106.292969 221.734375 106.425781 221.980469 106.355469 222.210938 C 106.289062 222.425781 106.082031 222.550781 105.867188 222.519531 C 105.867188 222.519531 105.746094 222.503906 105.523438 222.46875 C 105.296875 222.4375 104.964844 222.390625 104.5625 222.28125 C 104.355469 222.242188 104.128906 222.179688 103.886719 222.101562 C 103.644531 222.03125 103.382812 221.957031 103.113281 221.851562 C 102.5625 221.664062 101.953125 221.421875 101.308594 221.128906 C 100.015625 220.550781 98.5625 219.773438 97.0625 218.863281 C 96.3125 218.410156 95.542969 217.941406 94.78125 217.4375 C 94.019531 216.933594 93.242188 216.421875 92.472656 215.910156 C 91.710938 215.390625 90.945312 214.867188 90.195312 214.355469 C 89.449219 213.847656 88.714844 213.335938 88 212.867188 C 87.28125 212.390625 86.589844 211.9375 85.929688 211.527344 C 85.261719 211.125 84.640625 210.738281 84.042969 210.425781 C 83.453125 210.109375 82.902344 209.851562 82.410156 209.660156 C 82.164062 209.574219 81.929688 209.472656 81.71875 209.425781 C 81.503906 209.359375 81.304688 209.308594 81.128906 209.292969 C 81.046875 209.277344 80.960938 209.265625 80.878906 209.253906 C 80.8125 209.253906 80.753906 209.246094 80.695312 209.246094 C 80.632812 209.242188 80.578125 209.238281 80.53125 209.234375 C 80.476562 209.226562 80.40625 209.246094 80.355469 209.257812 C 80.140625 209.289062 80.027344 209.308594 80.027344 209.308594 L 80.023438 209.308594 C 79.78125 209.351562 79.550781 209.1875 79.511719 208.945312 C 79.476562 208.726562 79.609375 208.515625 79.816406 208.449219 " fill-opacity="1" fill-rule="nonzero"/><path fill="#ff0162" d="M 114.402344 406.242188 C 114.402344 383.789062 132.605469 365.578125 155.066406 365.578125 C 177.519531 365.578125 195.722656 383.789062 195.722656 406.242188 C 195.722656 428.695312 177.519531 446.898438 155.066406 446.898438 C 132.605469 446.898438 114.402344 428.695312 114.402344 406.242188 " fill-opacity="1" fill-rule="nonzero"/><path fill="#fffffc" d="M 143.089844 398.023438 C 143.167969 402.628906 143.003906 409.871094 142.875 414.433594 C 142.824219 416.378906 144.824219 417.707031 146.597656 416.90625 L 165.953125 408.199219 C 167.679688 407.417969 167.679688 404.964844 165.953125 404.1875 L 146.808594 395.570312 C 145.046875 394.777344 143.054688 396.089844 143.089844 398.023438 " fill-opacity="1" fill-rule="nonzero"/><path fill="#fcaa24" d="M 141.667969 140.261719 C 141.425781 142.867188 127.8125 146.683594 126.964844 144.730469 C 126.125 142.773438 126.640625 127.015625 129.171875 126.207031 C 131.84375 125.351562 141.921875 137.664062 141.667969 140.261719 Z M 123.769531 109.359375 C 110.753906 112.863281 103.488281 179.621094 116.65625 180.660156 C 126.070312 181.40625 128.6875 168.296875 127.945312 160.527344 C 127.816406 159.238281 128.835938 158.125 130.136719 158.109375 C 135.246094 158.046875 142.304688 156.101562 146.496094 154.023438 C 147.582031 153.484375 148.894531 153.789062 149.628906 154.753906 C 154.902344 161.714844 160.03125 167.96875 165.453125 164.738281 C 174.945312 159.070312 136.628906 105.898438 123.769531 109.359375 " fill-opacity="1" fill-rule="nonzero"/><path fill="#ff3701" d="M 60.253906 340.738281 C 57.65625 341.816406 47.527344 331.429688 48.714844 329.171875 C 50.511719 325.746094 61.058594 324.324219 63.925781 325.964844 C 66.785156 327.613281 62.855469 339.65625 60.253906 340.738281 Z M 23.046875 302.21875 C 23.464844 298.570312 28.421875 298.078125 31.683594 300.039062 C 34.945312 301.996094 34.394531 311.75 31.9375 313.28125 C 29.480469 314.8125 22.277344 308.835938 23.046875 302.21875 Z M 79.082031 313.710938 C 68.058594 304.382812 51.273438 312.128906 45.300781 314.046875 C 44.285156 314.375 43.296875 313.46875 43.523438 312.429688 C 44.6875 307.050781 49.117188 292.089844 43.257812 287.492188 C 32.636719 279.15625 12.203125 295.554688 9.636719 303.636719 C 6.53125 313.417969 50.578125 359.402344 60.421875 359.699219 C 70.269531 359.996094 92.875 325.378906 79.082031 313.710938 " fill-opacity="1" fill-rule="nonzero"/><path fill="#ff4768" d="M 516.734375 179.070312 C 504.21875 174.964844 487.058594 179.730469 478.039062 201.867188 C 472.039062 216.613281 475.429688 234.660156 491.710938 241.300781 C 509.886719 248.714844 521.914062 237.785156 517.984375 232.878906 C 516.167969 230.605469 507.066406 236.839844 498.15625 231.019531 C 488.066406 224.433594 490.96875 212.539062 493.5625 205.9375 C 498.261719 193.980469 510.449219 186.207031 519.339844 190.699219 C 523.847656 192.972656 527.273438 199.257812 529.328125 198.804688 C 535.425781 197.457031 534.144531 184.785156 516.734375 179.070312 " fill-opacity="1" fill-rule="nonzero"/><path fill="#fcaa24" d="M 587.851562 363.363281 C 587.851562 366.335938 585.441406 368.746094 582.46875 368.746094 C 579.488281 368.746094 577.078125 366.335938 577.078125 363.363281 C 577.078125 360.386719 579.488281 357.976562 582.46875 357.976562 C 585.441406 357.976562 587.851562 360.386719 587.851562 363.363281 " fill-opacity="1" fill-rule="nonzero"/><path fill="#2679ff" d="M 54.34375 222.34375 C 54.34375 225.882812 51.480469 228.742188 47.945312 228.742188 C 44.410156 228.742188 41.546875 225.882812 41.546875 222.34375 C 41.546875 218.8125 44.410156 215.945312 47.945312 215.945312 C 51.480469 215.945312 54.34375 218.8125 54.34375 222.34375 " fill-opacity="1" fill-rule="nonzero"/><path fill="#fcaa24" d="M 64.6875 95.132812 C 64.6875 99.507812 61.140625 103.046875 56.769531 103.046875 C 52.402344 103.046875 48.855469 99.507812 48.855469 95.132812 C 48.855469 90.765625 52.402344 87.222656 56.769531 87.222656 C 61.140625 87.222656 64.6875 90.765625 64.6875 95.132812 " fill-opacity="1" fill-rule="nonzero"/><path fill="#fcaa24" d="M 496.507812 150.835938 C 496.507812 153.019531 494.734375 154.792969 492.550781 154.792969 C 490.367188 154.792969 488.59375 153.019531 488.59375 150.835938 C 488.59375 148.644531 490.367188 146.878906 492.550781 146.878906 C 494.734375 146.878906 496.507812 148.644531 496.507812 150.835938 " fill-opacity="1" fill-rule="nonzero"/><path fill="#ff2e74" d="M 457.304688 239.375 C 457.304688 243.167969 454.230469 246.246094 450.4375 246.246094 C 446.640625 246.246094 443.566406 243.167969 443.566406 239.375 C 443.566406 235.582031 446.640625 232.511719 450.4375 232.511719 C 454.230469 232.511719 457.304688 235.582031 457.304688 239.375 " fill-opacity="1" fill-rule="nonzero"/><path fill="#2679ff" d="M 596.269531 255.078125 C 596.269531 257.402344 594.386719 259.285156 592.058594 259.285156 C 589.738281 259.285156 587.851562 257.402344 587.851562 255.078125 C 587.851562 252.757812 589.738281 250.871094 592.058594 250.871094 C 594.386719 250.871094 596.269531 252.757812 596.269531 255.078125 " fill-opacity="1" fill-rule="nonzero"/><path fill="#ff2e74" d="M 584.992188 167.777344 C 584.992188 170.941406 582.429688 173.503906 579.265625 173.503906 C 576.101562 173.503906 573.539062 170.941406 573.539062 167.777344 C 573.539062 164.613281 576.101562 162.050781 579.265625 162.050781 C 582.429688 162.050781 584.992188 164.613281 584.992188 167.777344 " fill-opacity="1" fill-rule="nonzero"/><path fill="#2679ff" d="M 13.46875 381.367188 C 13.46875 385.082031 10.453125 388.097656 6.734375 388.097656 C 3.015625 388.097656 0 385.082031 0 381.367188 C 0 377.644531 3.015625 374.632812 6.734375 374.632812 C 10.453125 374.632812 13.46875 377.644531 13.46875 381.367188 " fill-opacity="1" fill-rule="nonzero"/><path fill="#fffffc" d="M 71.304688 131.597656 C 73.847656 134.144531 73.847656 138.269531 71.304688 140.8125 C 68.761719 143.351562 64.640625 143.351562 62.09375 140.8125 C 59.550781 138.269531 59.550781 134.144531 62.09375 131.597656 C 64.640625 129.058594 68.761719 129.058594 71.304688 131.597656 " fill-opacity="1" fill-rule="nonzero"/><path fill="#ff4768" d="M 192.503906 177.429688 C 192.503906 179.988281 190.429688 182.058594 187.875 182.058594 C 185.316406 182.058594 183.246094 179.988281 183.246094 177.429688 C 183.246094 174.875 185.316406 172.796875 187.875 172.796875 C 190.429688 172.796875 192.503906 174.875 192.503906 177.429688 " fill-opacity="1" fill-rule="nonzero"/><path fill="#ff4768" d="M 447.859375 90.839844 C 447.859375 93.214844 445.941406 95.132812 443.566406 95.132812 C 441.199219 95.132812 439.273438 93.214844 439.273438 90.839844 C 439.273438 88.472656 441.199219 86.546875 443.566406 86.546875 C 445.941406 86.546875 447.859375 88.472656 447.859375 90.839844 " fill-opacity="1" fill-rule="nonzero"/><path fill="#0768e6" d="M 442.6875 167.777344 C 442.6875 171.125 439.972656 173.839844 436.625 173.839844 C 433.28125 173.839844 430.566406 171.125 430.566406 167.777344 C 430.566406 164.429688 433.28125 161.714844 436.625 161.714844 C 439.972656 161.714844 442.6875 164.429688 442.6875 167.777344 " fill-opacity="1" fill-rule="nonzero"/><g clip-path="url(#a7ffd850e5)"></g></svg>
